<mxfile host="app.diagrams.net" modified="2024-06-11T12:34:29.169Z" agent="Mozilla/5.0 (Windows NT 10.0; Win64; x64) AppleWebKit/537.36 (KHTML, like Gecko) Chrome/121.0.0.0 Safari/537.36" etag="lV8aBZD1klvhTDKQOhSB" version="24.5.2" type="device">
  <diagram name="PÃ¡gina-1" id="9OQ-QK9-jC1EG4fjbH3k">
    <mxGraphModel dx="4522" dy="1564" grid="1" gridSize="10" guides="1" tooltips="1" connect="1" arrows="1" fold="1" page="1" pageScale="1" pageWidth="827" pageHeight="1169" math="0" shadow="0">
      <root>
        <mxCell id="0" />
        <mxCell id="1" parent="0" />
        <mxCell id="ISqIVDaVjtGfIf4uTUZB-22" value="" style="rounded=1;whiteSpace=wrap;html=1;fillColor=#474747;strokeColor=default;" vertex="1" parent="1">
          <mxGeometry x="-1460" y="90" width="320" height="560" as="geometry" />
        </mxCell>
        <mxCell id="ISqIVDaVjtGfIf4uTUZB-23" value="&lt;font face=&quot;Times New Roman&quot; style=&quot;font-size: 24px;&quot;&gt;Cadastro De Cliente&lt;/font&gt;" style="rounded=1;whiteSpace=wrap;html=1;fillColor=#B0B0B0;" vertex="1" parent="1">
          <mxGeometry x="-1423.97" y="130" width="247.94" height="50" as="geometry" />
        </mxCell>
        <mxCell id="ISqIVDaVjtGfIf4uTUZB-24" value="&lt;font color=&quot;#ff958a&quot; style=&quot;font-size: 13px;&quot;&gt;Nome :&lt;/font&gt;" style="text;html=1;align=center;verticalAlign=middle;resizable=0;points=[];autosize=1;strokeColor=none;fillColor=none;" vertex="1" parent="1">
          <mxGeometry x="-1439" y="230" width="70" height="30" as="geometry" />
        </mxCell>
        <mxCell id="ISqIVDaVjtGfIf4uTUZB-25" value="&lt;font color=&quot;#ff958a&quot; style=&quot;font-size: 13px;&quot;&gt;Telefone :&lt;/font&gt;" style="text;html=1;align=center;verticalAlign=middle;resizable=0;points=[];autosize=1;strokeColor=none;fillColor=none;" vertex="1" parent="1">
          <mxGeometry x="-1341" y="230" width="80" height="30" as="geometry" />
        </mxCell>
        <mxCell id="ISqIVDaVjtGfIf4uTUZB-26" value="&lt;font color=&quot;#ff958a&quot; style=&quot;font-size: 13px;&quot;&gt;Cidade :&lt;/font&gt;" style="text;html=1;align=center;verticalAlign=middle;resizable=0;points=[];autosize=1;strokeColor=none;fillColor=none;" vertex="1" parent="1">
          <mxGeometry x="-1233" y="230" width="70" height="30" as="geometry" />
        </mxCell>
        <mxCell id="ISqIVDaVjtGfIf4uTUZB-28" value="&lt;font face=&quot;Times New Roman&quot;&gt;Batista&lt;/font&gt;" style="rounded=0;whiteSpace=wrap;html=1;fillColor=#B0B0B0;" vertex="1" parent="1">
          <mxGeometry x="-1452" y="289" width="90" height="20" as="geometry" />
        </mxCell>
        <mxCell id="ISqIVDaVjtGfIf4uTUZB-29" value="&lt;font face=&quot;Times New Roman&quot;&gt;Adolfo&lt;/font&gt;" style="rounded=0;whiteSpace=wrap;html=1;fillColor=#B0B0B0;" vertex="1" parent="1">
          <mxGeometry x="-1452" y="350" width="90" height="20" as="geometry" />
        </mxCell>
        <mxCell id="ISqIVDaVjtGfIf4uTUZB-30" value="&lt;font face=&quot;Times New Roman&quot;&gt;Hitler&lt;/font&gt;" style="rounded=0;whiteSpace=wrap;html=1;fillColor=#B0B0B0;" vertex="1" parent="1">
          <mxGeometry x="-1452" y="410" width="90" height="20" as="geometry" />
        </mxCell>
        <mxCell id="ISqIVDaVjtGfIf4uTUZB-31" value="&lt;font face=&quot;Times New Roman&quot;&gt;Josefina&lt;/font&gt;" style="rounded=0;whiteSpace=wrap;html=1;fillColor=#B0B0B0;" vertex="1" parent="1">
          <mxGeometry x="-1452" y="470" width="90" height="20" as="geometry" />
        </mxCell>
        <mxCell id="ISqIVDaVjtGfIf4uTUZB-32" value="&lt;font style=&quot;font-size: 10px;&quot; face=&quot;Times New Roman&quot;&gt;(11)99941 - 2835&lt;/font&gt;" style="rounded=0;whiteSpace=wrap;html=1;fillColor=#B0B0B0;" vertex="1" parent="1">
          <mxGeometry x="-1347" y="289" width="90" height="20" as="geometry" />
        </mxCell>
        <mxCell id="ISqIVDaVjtGfIf4uTUZB-33" value="&lt;font style=&quot;font-size: 10px;&quot; face=&quot;Times New Roman&quot;&gt;(13)99864 - 4855&lt;/font&gt;" style="rounded=0;whiteSpace=wrap;html=1;fillColor=#B0B0B0;" vertex="1" parent="1">
          <mxGeometry x="-1347" y="350" width="90" height="20" as="geometry" />
        </mxCell>
        <mxCell id="ISqIVDaVjtGfIf4uTUZB-34" value="&lt;font style=&quot;font-size: 10px;&quot; face=&quot;Times New Roman&quot;&gt;(77)99671 - 9980&lt;/font&gt;" style="rounded=0;whiteSpace=wrap;html=1;fillColor=#B0B0B0;" vertex="1" parent="1">
          <mxGeometry x="-1347" y="410" width="90" height="20" as="geometry" />
        </mxCell>
        <mxCell id="ISqIVDaVjtGfIf4uTUZB-35" value="&lt;font style=&quot;font-size: 10px;&quot; face=&quot;Times New Roman&quot;&gt;(43)99958 - 4891&lt;/font&gt;" style="rounded=0;whiteSpace=wrap;html=1;fillColor=#B0B0B0;" vertex="1" parent="1">
          <mxGeometry x="-1347" y="470" width="90" height="20" as="geometry" />
        </mxCell>
        <mxCell id="ISqIVDaVjtGfIf4uTUZB-36" value="&lt;font face=&quot;Times New Roman&quot; style=&quot;font-size: 12px;&quot;&gt;Assis&lt;/font&gt;" style="rounded=0;whiteSpace=wrap;html=1;fillColor=#B0B0B0;" vertex="1" parent="1">
          <mxGeometry x="-1241" y="289" width="90" height="20" as="geometry" />
        </mxCell>
        <mxCell id="ISqIVDaVjtGfIf4uTUZB-37" value="&lt;font style=&quot;font-size: 12px;&quot; face=&quot;Times New Roman&quot;&gt;Praia Grande&lt;/font&gt;" style="rounded=0;whiteSpace=wrap;html=1;fillColor=#B0B0B0;" vertex="1" parent="1">
          <mxGeometry x="-1241" y="350" width="90" height="20" as="geometry" />
        </mxCell>
        <mxCell id="ISqIVDaVjtGfIf4uTUZB-38" value="&lt;font style=&quot;font-size: 12px;&quot; face=&quot;Times New Roman&quot;&gt;Barreiras&lt;/font&gt;" style="rounded=0;whiteSpace=wrap;html=1;fillColor=#B0B0B0;" vertex="1" parent="1">
          <mxGeometry x="-1240" y="410" width="90" height="20" as="geometry" />
        </mxCell>
        <mxCell id="ISqIVDaVjtGfIf4uTUZB-39" value="&lt;font style=&quot;font-size: 12px;&quot; face=&quot;Times New Roman&quot;&gt;Curitiba&lt;/font&gt;" style="rounded=0;whiteSpace=wrap;html=1;fillColor=#B0B0B0;" vertex="1" parent="1">
          <mxGeometry x="-1243" y="470" width="90" height="20" as="geometry" />
        </mxCell>
        <mxCell id="ISqIVDaVjtGfIf4uTUZB-40" value="&lt;font face=&quot;Times New Roman&quot; color=&quot;#ffffff&quot; style=&quot;font-size: 14px;&quot;&gt;Entrar em Contato&amp;nbsp;&lt;/font&gt;" style="rounded=1;whiteSpace=wrap;html=1;fillColor=#0CCC46;container=0;" vertex="1" parent="1">
          <mxGeometry x="-1293.95" y="560" width="130.95" height="35" as="geometry" />
        </mxCell>
        <mxCell id="ISqIVDaVjtGfIf4uTUZB-41" value="&lt;font face=&quot;Times New Roman&quot; color=&quot;#ffffff&quot; style=&quot;font-size: 14px;&quot;&gt;Voltar&lt;/font&gt;" style="rounded=1;whiteSpace=wrap;html=1;fillColor=#5280FF;container=0;" vertex="1" parent="1">
          <mxGeometry x="-1440" y="560" width="130.95" height="35" as="geometry" />
        </mxCell>
        <mxCell id="ISqIVDaVjtGfIf4uTUZB-44" value="" style="rounded=1;whiteSpace=wrap;html=1;fillColor=#474747;" vertex="1" parent="1">
          <mxGeometry x="-1010" y="210" width="560" height="320" as="geometry" />
        </mxCell>
        <mxCell id="ISqIVDaVjtGfIf4uTUZB-45" value="&lt;font style=&quot;font-size: 18px;&quot;&gt;Cadastro De Cliente&lt;/font&gt;" style="rounded=1;whiteSpace=wrap;html=1;fillColor=#B0B0B0;gradientColor=#b3b3b3;strokeColor=#666666;" vertex="1" parent="1">
          <mxGeometry x="-835" y="226.5" width="210" height="35.5" as="geometry" />
        </mxCell>
        <mxCell id="ISqIVDaVjtGfIf4uTUZB-46" value="&lt;font color=&quot;#ff958a&quot; style=&quot;font-size: 13px;&quot;&gt;Nome :&lt;/font&gt;" style="text;html=1;align=center;verticalAlign=middle;resizable=0;points=[];autosize=1;strokeColor=none;fillColor=none;" vertex="1" parent="1">
          <mxGeometry x="-940" y="270" width="70" height="30" as="geometry" />
        </mxCell>
        <mxCell id="ISqIVDaVjtGfIf4uTUZB-47" value="&lt;font color=&quot;#ff958a&quot; style=&quot;font-size: 13px;&quot;&gt;Telefone :&lt;/font&gt;" style="text;html=1;align=center;verticalAlign=middle;resizable=0;points=[];autosize=1;strokeColor=none;fillColor=none;" vertex="1" parent="1">
          <mxGeometry x="-770" y="270" width="80" height="30" as="geometry" />
        </mxCell>
        <mxCell id="ISqIVDaVjtGfIf4uTUZB-48" value="&lt;font color=&quot;#ff958a&quot; style=&quot;font-size: 13px;&quot;&gt;Cidade :&lt;/font&gt;" style="text;html=1;align=center;verticalAlign=middle;resizable=0;points=[];autosize=1;strokeColor=none;fillColor=none;" vertex="1" parent="1">
          <mxGeometry x="-580" y="270" width="70" height="30" as="geometry" />
        </mxCell>
        <mxCell id="ISqIVDaVjtGfIf4uTUZB-43" value="" style="shape=image;html=1;verticalLabelPosition=bottom;verticalAlign=top;imageAspect=1;aspect=fixed;image=data:image/png,iVBORw0KGgoAAAANSUhEUgAAAWgAAAFoCAYAAAB65WHVAAAAAXNSR0IArs4c6QAAIABJREFUeF7tm1mMJMeZ3yuzKus+uquv6eb03ENyqBUFybuyZNgPhgHZsL2yBS/kB2MF6MIIoiRgqQOk9NJPehAFSaBAyJSMpcAHPxDwk3YfDNpar9ewIZjyQkNpeAzJmZ6ZnqOrr6quMysr0/6XKolemZbGS2o3IvAroNHVVXl83+//xT8iI6K9DC8IQAACEDCSgGdkVAQFAQhAAAIZDJoigAAEIGAoAQzaUGEICwIQgAAGTQ1AAAIQMJQABm2oMIQFAQhAAIOmBiAAAQgYSgCDNlQYwoIABCCAQVMDEIAABAwlgEEbKgxhQQACEMCgqQEIQAAChhLAoA0VhrAgAAEIYNDUAAQgAAFDCWDQhgpDWBCAAAQwaGoAAhCAgKEEMGhDhSEsCEAAAhg0NQABCEDAUAIYtKHCEBYEIAABDJoagAAEIGAoAQzaUGEICwIQgAAGTQ1AAAIQMJQABm2oMIQFAQhAAIOmBiAAAQgYSgCDNlQYwoIABCCAQVMDEIAABAwlgEEbKgxhQQACEMCgqQEIQAAChhLAoA0VhrAgAAEIYNDUAAQgAAFDCWDQhgpDWBCAAAQwaGoAAhCAgKEEMGhDhSEsCEAAAhg0NQABCEDAUAIYtKHCEBYEIAABDJoagAAEIGAoAQzaUGEICwIQgAAGTQ1AAAIQMJQABm2oMIQFAQhAAIOmBiAAAQgYSgCDNlQYwoIABCCAQVMDEIAABAwlgEEbKgxhQQACEMCgqQEIQAAChhLAoA0VhrAgAAEIYNDUAAQgAAFDCWDQhgpDWBCAAAQwaGoAAhCAgKEEMGhDhSEsCEAAAhg0NQABCEDAUAIYtKHCEBYEIAABDJoagAAEIGAoAQzaUGEICwIQgAAGTQ1AAAIQMJQABm2oMIQFAQhAAIOmBiAAAQgYSgCDNlQYwoIABCCAQVMDEIAABAwlgEEbKgxhQQACEMCgqQEIQAAChhLAoA0VhrAgAAEIYNDUAAQgAAFDCWDQhgpDWBCAAAQwaGoAAhCAgKEEMGhDhSEsCEAAAhg0NQABCEDAUAIYtKHCEBYEIAABDJoagAAEIGAoAQzaUGEICwIQgAAGTQ1AAAIQMJQABm2oMIQFAQhAAIOmBiAAAQgYSgCDNlQYwoIABCCAQVMDEIAABAwlgEEbKgxhQQACEMCgqQEIQAAChhLAoA0VhrAgAAEIYNDUAAQgAAFDCWDQhgpDWBCAAAQwaGoAAhCAgKEEMGhDhSEsCEAAAhg0NQABCEDAUAIYtKHCEBYEIAABDJoagAAEIGAoAQzaUGEICwIQgAAGTQ1AAAIQMJQABm2oMIQFAQhAAIOmBiAAAQgYSgCDNlQYwoIABCCAQVMDEIAABAwlgEEbKgxhQQACEMCgqQEIQAAChhLAoA0VhrAgAAEIYNDUAAQgAAFDCWDQhgpDWBCAAAQwaGoAAhCAgKEEMGhDhSEsCEAAAhg0NQABCEDAUAIYtKHCEBYEIAABDJoagAAEIGAoAQzaUGEICwIQgAAGTQ1AAAIQMJQABm2oMIQFAQhAAIOmBiAAAQgYSgCDNlQYwoIABCCAQVMDEIAABAwlgEEbKgxhQQACEMCgqQEIQAAChhLAoA0VhrAgAAEIYNDUAAQgAAFDCWDQhgpDWBCAAAQwaGoAAhCAgKEEMGhDhSEsCEAAAhg0NQABCEDAUAIYtKHCEBYEIAABDJoagAAEIGAoAQzaUGEICwIQgAAGTQ1AAAIQMJQABm2oMIQFAQhAAIOmBiAAAQgYSgCDNlQYwoIABCCAQVMDEIAABAwlgEEbKgxhQQACEMCgqQEIQAAChhLAoA0VhrAgAAEIYNDUAAQgAAFDCWDQhgpDWBCAAAQwaGoAAhCAgKEEMGhDhSEsCEAAAhg0NQABCEDAUAIYtKHCEBYEIAABDJoagAAEIGAoAQzaUGEICwIQgAAGTQ1AAAIQMJQABm2oMIQFAQhAAIOmBiAAAQgYSgCDNlQYwoIABCCAQVMDEIAABAwlgEEbKgxhQQACEMCgqQEIQAAChhLAoA0VhrAgAAEIYNDUAAQgAAFDCWDQhgpDWBCAAAQwaGoAAhCAgKEEMGhDhSEsCEAAAhg0NQABCEDAUAIYtKHCEBYEIAABDJoagAAEIGAoAQzaUGEICwIQgAAGTQ1AAAIQMJQABm2oMIQFAQhAAIOmBiAAAQgYSgCDNlQYwoIABCCAQVMDEIAABAwlgEEbKgxhQQACEMCgqQEIQAAChhLAoA0VhrAgAAEIYNDUAAQgAAFDCWDQhgpDWBCAAAQwaGoAAhCAgKEEMGhDhSEsCEAAAhg0NQABCEDAUAIYtKHCEBYEIAABDJoagAAEIGAoAQzaUGEICwIQgAAGTQ1AAAIQMJQABm2oMIQFAQhAAIOmBiAAAQgYSgCDNlQYwoIABCCAQVMDEIAABAwlgEEbKgxhQQACEMCgqQEIQAAChhLAoA0VhrAgAAEIYNDUAAQgAAFDCWDQhgpDWBCAAAQwaGoAAhCAgKEEMGhDhSEsCEAAAhj0kRr4wQ9+sJLJZD4Qx/FcHMe1UqnUaLVaVzzPiwuFQn48Ht+IouhWqVSaj+O4rWN83/eSJCn5vt/rdrs3i8Xi5NFHH91ztbSeeOKJiu/7zS9+8Ys3lOMPf/jDs77v3/nYxz7WczVn5bWxseGvrq42fd+vRVFUieO4ns1mF+I4LhaLxZXxeJzxfX8+k8kESZLkwjDsViqVuXa7/UoYhndLpdLE9/0rjzzyyGsuc3oncnvyySfrpVJpIYqiXrFY7Hz84x8fvhPXtfEa1hr0xsZGLp/Pn5ubm5Op3snn860wDJPFxcXhRz/60cG9iKFG12w214IgWJIpe553olgsXphMJvPj8dj3fb80Go06o9GoHUXRIJ/Px0EQJHEc98bjcdf3/Yrnef0oinYXFhbWb9++/bOFhYXK4eFhq9FoxAcHB1cee+yx9q+L5bvf/e7pfD4/zOVy3U984hNdz/OSo8crz42Njehe8vltHvO9731vOYqiE5PJZCFJEn84HG7ncrlxrVZbyefzi1EUHU4mk63JZOLlcrlJNpu98+lPf/ruXzemZ599tjIYDHIXL178tfz+utfXed/4xjeONRqNh33fz/m+H/V6vbuFQiFbLBbXBoNBFEXRRO9luJPJJIiiKJvNZmu5XG4lSZLKZDLRB3XP8+qDwWDX87ya9Mvn85kkSQZBEFS3t7d/4XneREyiKGp5nnfT9/0Xv/SlL22+ndhdOveZZ56ZC8OwNBwOq41G48J4PI5Go1G3VCpl4zjeHY1GW0EQdC5evDh2Ke97yeUdMegnnnjiI81m84PZbHbz9u3b/75UKmn0WVYAFy9efPleAvn617++kM/nq91ut5ckSeh5Xj4IgiCXy2UzmUyczWaDMAwLURTVstnssu/75clkEjabTZlGezweqyGP4jju67dMJKeTs9lxr9fb1ii4WCyW9LnnecHs/KIaVzabrarB+b6/lMvl7huPxwue561Xq9W5V1999c8WFhbem81mVUDXoyjqZDKZgYonn8/34zhWS+4kSdKKoqgfBMFgMBjcnpuba+7s7FyrVCoabSVhGB5ms1mZl0bimclkMi6VSkvValUjhf0kSRR3nMvlfOWtc0ajUU/3nUwm2SAIynEch+PxuJ/NZpXXUK98Pl8YDof92Si/6nmevgizWYWXzx4eHv7iK1/5yv9l/PeiiUbLcRwfn0wmSS6XU8cxHTnKsHzfT4rF4lyj0Vjb29u7nsvlMsVisTIcDg+jKBoHQRBGUXRXjS0Igm42m+1JjiiKcjPjk5F5nU5nkMvl1nzfX06SpD6ZTOY0Ms3lcvUoijK7u7svzwyvN5lMtrPZ7PbXvva12/cS/1sd861vfasURdEDmUxGxrtQrVbP6rg4jjO6X7lcXg6CYC0Mw9j3fRlHnCSJRr8FPSlJ4ziO9bdMuD2ZTDKFQmFReqpGkyQZFotF6asnikm3293WCDtJkl6v17scRZE6tm4ul9ufTCa3h8Ph5sbGRvc35fPcc89lL1++PC82SZLkwzAcep5XbTabx6S96i+OY3UAvUKhED7yyCO/8Zq/6Z7PPPNM8bc9etUAxff9YhAE06ePTCZTG4/H+UKhUNzd3b1dKBSUR0e/1bDCMJw0Go1CHMdqxyO1ZbUpaXJ4eDjVoFQqVaMoyg+Hw0T8V1dX2/1+X7XpPf744/u/Ke97+X5jY6NYLpfnisXiCXXuuVyuEIZhW1qovegnCIJJGIZRpVKpKT7P8+4o7s997nO793IPHfO2DfrZZ5/9o+Fw+C497kdR9D+CINiqVqurg8Gg3e129zudjkaTKixfj4PVanVpMpnIW/ZzuVwln8/rsVG/l7PZbLnf7x+MRiMZTy0IgkXBT5KkqxFrGIYy4EKpVLovl8s1oigS+LtBEGRyuZwaVE8jORlYtVpdrtfrzcPDw2uj0eiu7/t53U8mF0WR8g5Go9EgSRIZvYyjmslkVieTSb3b7R7L5/PvPXbs2JTj3t7etAHXarWM53ndnZ2dn00mk8FoNLrRaDSGYRi2+v3+1srKyup4PB7Pz8+XlIfneRphjUNV1WQynEwmEm+cz+fLnucN1DE0m80Lw+GwNRwOb8uQgyDIVyqVRRlst9vdnUwmxeXl5ZO7u7s3wzAczM/PL4zHY+Uggxe3RbFUZ1UsFjW6UzEoTvGY7O/vb47H4z1PlRwEvgxF5yVJEh0eHm7qOOlVKBRkRoPxeKzRvOLvtFqtzfPnz3+o3W7fPDg4uCXz9zyvNB6PpcNQDatWq0knNRiNetrZbLbQbDbPyWD7/b4KUp2WP+swC0EQlDKZjK5TyeVyMra5JEmW+/1+JIMulUrnNHIeDocTFXa/379aKBS8fD6vTkkmf3c0Gl3p9/ubYRh2FIs0Ur3kcrmqri824/F42ggWFhZOylTVUKMoGqlz/D+D53K5XNaTi4zYK5fLZ8vl8nuHw2Gn1+vdHo/HyWAwUEdY9n2/rkamGlWHnclkwkwmU6hUKoE6jsFgkNaF3rc7nc4b5XJZBq4YRjs7O7vqmGSo+Xzer1arqr2dJEl2VEu9Xu+WDKher58sFAqqz1ideaFQWJB+e3t7dzXQ0NSK4i4UCkvirhG7nvDUSWpAE4bhTQ0M1A40QNK99KQnY4jjeCydDw4ObmowUalUjpXL5YqeCm/evPn66urqg/l8fl76R1E0jON4pA6pXC6vtFqtN4bDYc/zvEK1Wp2X1up41MnGcZytVCrlwWBwqEGR6jKfz5d6vZ6eJjRCKGo6cDZQkolmNEhRnfT7/Z0gCCqzzlG1MygWi7p2ZjQaxSdOnHh/r9fbabfbN5RLNpuV2empRB6yrPrb3d3dmpubO5HNZovKUU+uqr96vb6aJMm42+0eTH750oBKsef0RKzBRTarcV8mmyTJfhzHXWFXbLPanD4pqQPsdrs3CoXCaj6f18AtHo1G+2KUz+cbmoZRe9FUTKVSkee18vm8Bnq6+EQ/w+Fwr1qtLqot9Ho9xbs2HA5f/NSnPnVPT1Bvy6CTJPnhz3/+8/efOHHiQpIkmWvXrj1fr9fLS0tLZ/SIKCh3797dm5+fP6HvZQ6NRkONKROGoUxk+v7oS8foR6ar7zWqmfYknjc1SV3n6Dm/+MUvpteUeWpUM2usGtW8eVmdo/P10rXT44bDYebg4CDT6/VUFNN76tjd3d3pfefn5zM3b95UUWXOnDmjEeL07xs3bui94N9utVo/DcPw+tmzZ8+r+M+dO/eu9fX1Y71e76BWqy1mMpniaDRSBxC3Wq3Lt27d+un58+f/VbPZnNN99VLsmjrpdruHg8FgpCL3PM8fDAYyz+ri4mLm0qVL+6PRKDx58uR0vjPNc9ZpTPNTnBrJpi/lqs/ELc1ZeaXHKH99rnOVu/7udruJTET6XLt27S8efvjhfyAee3t7L6kTVVF2u92tdrt9RaPE7e3t14bD4UG73b46Pz+/duHChX9eq9XOZ7PZ5tLSkvKexpBqOBt5TjnrfRpbt9udvlduL730Uubw8DDz0EMPTZlLS/3WT6qhjlXMs7nfN++R5q5c0uNnjX56z1RznaccW61WJBPyPG85k8nM7e7uvq78yuXyyZWVlZM6p1QqTTVaXV3NNJvN6d/60UsGrfe67tWrVzOXL1/WwEODhoE+O378+H39fj+Jomjl9OnTmfX19Wlt6Uf5V6vV6fujuqV/697tdnuaf8oqfa96FQP9rePSa4q1PpOmqf76XsfqWv1+v6XBzWAwuLO/v//y0tLSw6pX8VC8yufw8FAj16o6qePHj68cHh5qhB5XKpWcrq17pPUkBjpP10/brQZmarIy00ajUTza/nR8v9/P7O/vt/TkoVrr9/uT559//gsyw2q1ur6/v3/7/Pnz//K+++77F81ms6GOzPf9UAMHvWZPVJlOpzOs1WrFNJbZwGSau2JS3JVKRYMD9chvckr9Y8ZFxqyRu54QE+Ups1cnH0WRnvIKGpQoZ1039bG0vYm76kjXTzXVlJY62eFw2C0Wi9XRaHR49erV/65B0erq6ntffPHFf/viiy/+u0cfffQ3TsW+LYMeDAbX2u32yaWlJTWUwfXr13+uZPv9fnFnZ6e1vr7+u4VCoSSDUYIqAiWSvvS3Glma2FHR04YoMfW5CuNXzUdFqnMFXMB0Pf1Ww9Q5+k7XT1+CmxqDPtP7ra2t6W+dp3uoyFqt1rSIKpXK1Lhv3bo1vY4+U4NSI9M9ZSTHjh0b67H2xIkTo+eff/7P3/3ud5+7du3aa2fOnDl169at3tra2gfX19enoy0ZsopIPNRYdM3Nzc1pvGEYXtUIIJfLLQVBUNcobjgcLq6srEzvq3PVESnWer0+jWF/f38ar/4+WnRpIaXmJRapMaoBpjxnI5rM9evXNQ0xWVhY0BTStOB0Xb2Xtjs7O2Jyt1qtrqjT0jV0jOJXfC+88MKfhGG48+CDD/4zTduIn+KRob3VKzUM1UTKXrnoPoop/X3//fdPecsA09oQB/FQLczNzU11Uyx6pYalvHWMvtdnqUGnptrpdKa6qlMQ0xdeeKF/7dq1/xRFUbFSqXxgcXGxvry8nNGPOgrloXyUb1pPij01tNQwVCeXLl3S+sTLSZLcarfbh+fOnXt4PB43crnc+rve9a7pNRVb2umkg460fRytV+Wa3jfNLzVq6SMdpH36OtoRp/WdDj50npippvVeebVaLY0m6ydPnpwOVNIYxEe661z9Tttg2uGJeVpjaTtNB0DpgEC6ph2z9Dk6qNLfurZiUQ4aeFy6dOnJg4ODq81m8/f0FLS6uvr+fD5/WvnpGHE5Wue6b1qrej9rQ9PcUj1ST9D3qc8ornQgpvN1zBFfkTl7+hkOh9FgMOgtLS01xENPV/l8vq56TI9Pa/co99mgK9L6097e3ubi4uKJfr9/a3d397X19fUPrK6uPvD888//0Yc+9KGn37Jx/MqHb8ugt7e3f9RqtU5ubm7qEftSs9lcPX/+/HvL5fLizs5OWK/XF7e3t9vLy8sNJZaaY9ow0x73aExHe9t0lKPv38qgU4NPi0TXE7y0yH+15z56H50rgQRXhZI2AH2mgtD3uucrr7wyneJYW1t78zPFnzaQ2fSKzKD7k5/85H/Ozc3l7969+9P3ve99/+Tq1auXL1y48I+Wl5drahAyBRWZikgjf43GZCI7OzvtK1euPHN4eHhzaWnp7zcajfu14BQEwbpMSvfXeTIYmZ86ORmlDEZGr/dpx5c+IaRPHKmxiUVqvEeNRvlvbm7eTJJkb2Fh4cF6vZ7XNdQoVehp4SsG3UN/655ioPiVV6/X07ROIF537tyZMlXDlhbpKC5twEc7y/Qz3ev111+fPp3onhqtpiNmmaAMUp1aOipUHmkno+vpnspJ8el3ajRHOy2xSo1eOszmiTUKm5rT5cuXDzc3N//jyZMn/+A973nP9BqKS9Ncql3ledRo9FlqUvpOdaPjX3755VGn0/nLbrd7fWdn5+ri4uIpPfKWy+X7Tp069cEgCEa9Xk+fL87Pz2tx8U6j0bivXC5r7WAaV2psul46+tO906fCtO7T499q4JFyTjswXSut9XSwoPn1brfri61qXvdW53j79u2d8+fPL0pfaa3rK9/U5NLR41t1CL+qs45R7Km5p09UykFx6Pp37969pGmaW7du/SQIgpUHHnjgD9Rx6hjFpWmaYrEohtO09Pls6ibWDJs6dz3FtVqtP9dUo1hXKpX719fXL+geqsG0fR/tAI/6ga6nv2ftRTuzNI2j6T5Ns2nObFAoFLS2Nj1NTPRKa0B56LudnZ3Xq9XqMe3oarfb1zVPrTUyTbGePn36A3qI/9GPfvSHH/7wh//Db92gb9y48Z/feOONG1tbWy/W6/Vjvu9rcS5aWlr6nXK5fF47LF599dX/tri4+Dvz8/MPzHr/iRavZIoSTbDTRzQ1Fv3ouLSxSVwdo8aePt6lBaLjNALW57qeAKm4VQQqXs0dnjhxIpc+luh4fa/GqkYp4VIjUM8nE0pH0ukoT6Mivc6dOzcdsep87RbR/HChUPA7nc6O5rmPHTt2VoK89NJLf3rhwoXf14KQ5pNPnTr19zS/NplM9jV3Xq1W106dOlXf2to6PDw87KkT0zzbjRs3/kRzmAsLC+/RlKPu2Ww2H1BRVKvV2mzEl1tbW5vOCW1vb09H0TI1GZpyT0c2KkrxSkcxOrfdbmtKJtIj25HH4tH29vb/KpVKzU6n8+qdO3f+cm1t7e+eOXPmH7fb7a1Wq/XisWPH/qHmf/XsV6/XtZtBI26NEGONDra3tzfX1tbODwaD7u7u7uVarXaq2WweT2NRrOnjYTqST0eN6UhEf+tHnc/ly5enmupYaaMRun7UQaUdrvLTj667tbV15/Lly382Nze3vLq6+pAeKWePvTmNhPSYWi6XNSqa1pSM6s6dO5qblY6aU9Q8ZHlzc/PnyndlZeX3a7VaNe1k1EGqnjStpfPVWaSP9Lq/fq5cuRIeHBzcyWazh3fv3n3llzNpE82J7mgaaDweH2peV1N94/H4QCOqRqOxlM1mo+3t7atnz5793eXl5Ye0TjE3N3d8YWHhfLPZbMpMdnZ2tOinHS3T0b5iUf2qY1fHIO3TUWH6JJl2xOkIUueoDXW73duDwUCF99r+/v4b+Xx+7qGHHvrDg4OD7Xa7vdtsNh8cDAa3tre3f3L8+PH3ra6uvjvVMe2Q1D6PThmkT4UytPF43CuVSlpE1qKylj0U460kSbz5+fnVfr8vJlelreaTZVqaO79+/fpfnD59+p+2Wq2fxXFcUYd1586dFxqNxrr41mo1tZtjYikDnu2i6g8Gg73Z08Cunjq1HtXpdLRg7dVqtTNnzpz515obDsNwbzKZ9LWeVavV1rQeNhwOd7WKXq/X17XGorUDzaFrfn9Wj5pbjTTfXSwWm4pB7VKL3uKl833fj1dXV+/XOsa1a9f+q+bsb9269cLS0tLf0ZpZv9/fPXv27PvDMNxXu1M+nU5n78c//vG/+chHPvJffusGrRs8/fTT2n70e1qECIJgrG1WmUxmMUkSLaho3nWzWCxqVV47JRLtQlBvpMcYTa9KKAk4a0zqtaYTrBJPxqCFDJ3med70OVba6wuZn7ZHaXFK50+r4ZfnqVC0gKWFNPX8c1qsUQFpZ8is14u0wKFdI9pVoAUNPQV5nqf5Mi3GrHqetzIT/7rmlHzfP9DiThzHh7OtcFqE0e4KLWJq1VYmrB0oilfHq0fWjoyi5qaV52xuWbtGfC0ahWHYX1pa0sLkSLsytG1LAwTFroVLxaXjZguc6roDGaR2eKiQtNio9cdZ7lrV9rS6oePERn/P5sLag8FAC2paSNR5WkyTeWmhUwuR4qsFTY0ctBgnnRSLdpVo2KIdMdNdNdJJeswWbBOZzoyfFkBH0m+Wh7YpTkPSNVSgiltGlV5XCzG9Xk+5a4FWP1o8bWhBUYtsvu+39/f3X/E8TzsWpvGI7Sx/xS+j1u4WzfFqzlANTCdrt4wWltSgtNKvRT7VmL7T0GfaAWo3RKVSOakHNNWGFgVVt7N6HGguUtfxPE8sVWvawaHFRi2GameRRng9aaFFPF1D3GdztNIlOTg42NKitWpFNaHF3FktK5exYtKCsH60iCxT0LGab1XtdLvdlnjMFtQUp+bstNCghbXR4uKi5pEku86NtbNBNSiz1A4jLX7pc+00SEeJWofTgmscx+p4S/otPrO2IR3FTzHndH+tO6gutMAm/YvFonZc6IlQi2tvbgtNR6epPuKuRTUt3GkRWvcIw/BgtvNJ9/MbjYba4HSKTffT1kTVe6qX/EK3ErckSZTb1B80OJoZ6sHnP//5qTcc3aL6ne9850QQBNoksKdOWszz+bx+a5FbtSAGQblcPqYdVGEYbhcKhfbe3p7aj5pJdTwea1G7LPbScOYv0zaijnY8Hu/Pz8/fP1s0VWyKVR6kYyS2NPe0eSGTycjQR5/5zGe00+avbKX9dUb9tqY4jl74j//4j5fG43FJo9bZCuiigpsZtOYQtHNABTHWbgWtzKoHV4NTMspLIwhtR9KS9Eyw3le/+tX/55YUbT3a2tpSwyjkcjk1kukqksxwtq2lrtVpmaeKRcU925I0bRizFWk1VJltWqQyEu1v1gq+3+v1pttyfN+XgWobjbb0dR577DHt0kiefvrpcq/XK77V1iZ9t7+/H6R7ob/5zW8uep7X1P1UXDK0paWllWw2q73W2noV6XEqn89HYRhqJ4q27ky35sm8kiQpaCVZzGTC6qdkhjJBxT8zHjVgbT1SHlqAkaGEKsjZVjDt8w1kwJPJZO/xxx/XboI3C0Z7w3WddO/17G/1iXq8qyl2NRRt5YvjuKoFYbmwDFJmoLcqzLSgtXNC72dFOz1G8Whnhx79ZztDpp3KrJHJUBWM0KlcAAAIoUlEQVSrduTsfOELX9C2xnt6abDQ6XRkdvG9LMD86kVVT+12e1Wj6kKhoN0MYqjdFDJPpRnL8GcmG2vEKnOZrdpri52MVPXc931f28P6Fy9enDba/9/XxsaGOo/gy1/+8nQlWbG99tprMjnVpgxjupDbaDRWZjUt81cnpg6wk8vl9j772c++I1vK3ir2J598UusVarNqI5ONjQ0r/5lEnfH3v/997bf/K3usxXt/f9/X5/pfhFmnGDebTe1CyaW6PPXUUxf0JBRF0d7Ozs7+xsbGLxc93qHXO2bQTz31lB4tNZLUfsTpaKRYLPqf/OQnfzlHYNHrueeey29vb8v4R+/EftK/6dS1f/Xg4KDYbre7v81/cvn2t789V6vVTmuHiu/70//skFkoX3U22gqVy+VGN27c6L3Thfs3zZT7QeBvg8A7ZtB/G8FzTwhAAAIuE8CgXVaX3CAAAasJYNBWy0fwEICAywQwaJfVJTcIQMBqAhi01fIRPAQg4DIBDNpldckNAhCwmgAGbbV8BA8BCLhMAIN2WV1ygwAErCaAQVstH8FDAAIuE8CgXVaX3CAAAasJYNBWy0fwEICAywQwaJfVJTcIQMBqAhi01fIRPAQg4DIBDNpldckNAhCwmgAGbbV8BA8BCLhMAIN2WV1ygwAErCaAQVstH8FDAAIuE8CgXVaX3CAAAasJYNBWy0fwEICAywQwaJfVJTcIQMBqAhi01fIRPAQg4DIBDNpldckNAhCwmgAGbbV8BA8BCLhMAIN2WV1ygwAErCaAQVstH8FDAAIuE8CgXVaX3CAAAasJYNBWy0fwEICAywQwaJfVJTcIQMBqAhi01fIRPAQg4DIBDNpldckNAhCwmgAGbbV8BA8BCLhMAIN2WV1ygwAErCaAQVstH8FDAAIuE8CgXVaX3CAAAasJYNBWy0fwEICAywQwaJfVJTcIQMBqAhi01fIRPAQg4DIBDNpldckNAhCwmgAGbbV8BA8BCLhMAIN2WV1ygwAErCaAQVstH8FDAAIuE8CgXVaX3CAAAasJYNBWy0fwEICAywQwaJfVJTcIQMBqAhi01fIRPAQg4DIBDNpldckNAhCwmgAGbbV8BA8BCLhMAIN2WV1ygwAErCaAQVstH8FDAAIuE8CgXVaX3CAAAasJYNBWy0fwEICAywQwaJfVJTcIQMBqAhi01fIRPAQg4DIBDNpldckNAhCwmgAGbbV8BA8BCLhMAIN2WV1ygwAErCaAQVstH8FDAAIuE8CgXVaX3CAAAasJYNBWy0fwEICAywQwaJfVJTcIQMBqAhi01fIRPAQg4DIBDNpldckNAhCwmgAGbbV8BA8BCLhMAIN2WV1ygwAErCaAQVstH8FDAAIuE8CgXVaX3CAAAasJYNBWy0fwEICAywQwaJfVJTcIQMBqAhi01fIRPAQg4DIBDNpldckNAhCwmgAGbbV8BA8BCLhMAIN2WV1ygwAErCaAQVstH8FDAAIuE8CgXVaX3CAAAasJYNBWy0fwEICAywQwaJfVJTcIQMBqAhi01fIRPAQg4DIBDNpldckNAhCwmgAGbbV8BA8BCLhMAIN2WV1ygwAErCaAQVstH8FDAAIuE8CgXVaX3CAAAasJYNBWy0fwEICAywQwaJfVJTcIQMBqAhi01fIRPAQg4DIBDNpldckNAhCwmgAGbbV8BA8BCLhMAIN2WV1ygwAErCaAQVstH8FDAAIuE8CgXVaX3CAAAasJYNBWy0fwEICAywQwaJfVJTcIQMBqAhi01fIRPAQg4DIBDNpldckNAhCwmgAGbbV8BA8BCLhMAIN2WV1ygwAErCaAQVstH8FDAAIuE8CgXVaX3CAAAasJYNBWy0fwEICAywQwaJfVJTcIQMBqAhi01fIRPAQg4DIBDNpldckNAhCwmgAGbbV8BA8BCLhMAIN2WV1ygwAErCaAQVstH8FDAAIuE8CgXVaX3CAAAasJYNBWy0fwEICAywQwaJfVJTcIQMBqAhi01fIRPAQg4DIBDNpldckNAhCwmgAGbbV8BA8BCLhMAIN2WV1ygwAErCaAQVstH8FDAAIuE8CgXVaX3CAAAasJYNBWy0fwEICAywQwaJfVJTcIQMBqAhi01fIRPAQg4DIBDNpldckNAhCwmgAGbbV8BA8BCLhMAIN2WV1ygwAErCaAQVstH8FDAAIuE8CgXVaX3CAAAasJYNBWy0fwEICAywQwaJfVJTcIQMBqAhi01fIRPAQg4DIBDNpldckNAhCwmgAGbbV8BA8BCLhMAIN2WV1ygwAErCaAQVstH8FDAAIuE8CgXVaX3CAAAasJYNBWy0fwEICAywQwaJfVJTcIQMBqAhi01fIRPAQg4DIBDNpldckNAhCwmgAGbbV8BA8BCLhMAIN2WV1ygwAErCaAQVstH8FDAAIuE8CgXVaX3CAAAasJYNBWy0fwEICAywQwaJfVJTcIQMBqAhi01fIRPAQg4DIBDNpldckNAhCwmgAGbbV8BA8BCLhMAIN2WV1ygwAErCaAQVstH8FDAAIuE8CgXVaX3CAAAasJYNBWy0fwEICAywQwaJfVJTcIQMBqAhi01fIRPAQg4DIBDNpldckNAhCwmgAGbbV8BA8BCLhMAIN2WV1ygwAErCaAQVstH8FDAAIuE8CgXVaX3CAAAasJYNBWy0fwEICAywQwaJfVJTcIQMBqAhi01fIRPAQg4DIBDNpldckNAhCwmgAGbbV8BA8BCLhMAIN2WV1ygwAErCaAQVstH8FDAAIuE8CgXVaX3CAAAasJYNBWy0fwEICAywQwaJfVJTcIQMBqAhi01fIRPAQg4DIBDNpldckNAhCwmgAGbbV8BA8BCLhMAIN2WV1ygwAErCaAQVstH8FDAAIuE8CgXVaX3CAAAasJYNBWy0fwEICAywQwaJfVJTcIQMBqAhi01fIRPAQg4DKB/w0yU3hohNXm7wAAAABJRU5ErkJggg==;direction=south;" vertex="1" parent="1">
          <mxGeometry x="-1367" y="262" width="240" height="240" as="geometry" />
        </mxCell>
        <mxCell id="ISqIVDaVjtGfIf4uTUZB-49" value="" style="shape=image;html=1;verticalLabelPosition=bottom;verticalAlign=top;imageAspect=1;aspect=fixed;image=data:image/png,iVBORw0KGgoAAAANSUhEUgAAAWgAAAFoCAYAAAB65WHVAAAAAXNSR0IArs4c6QAAIABJREFUeF7tm1mMJMeZ3yuzKus+uquv6eb03ENyqBUFybuyZNgPhgHZsL2yBS/kB2MF6MIIoiRgqQOk9NJPehAFSaBAyJSMpcAHPxDwk3YfDNpar9ewIZjyQkNpeAzJmZ6ZnqOrr6quMysr0/6XKolemZbGS2o3IvAroNHVVXl83+//xT8iI6K9DC8IQAACEDCSgGdkVAQFAQhAAAIZDJoigAAEIGAoAQzaUGEICwIQgAAGTQ1AAAIQMJQABm2oMIQFAQhAAIOmBiAAAQgYSgCDNlQYwoIABCCAQVMDEIAABAwlgEEbKgxhQQACEMCgqQEIQAAChhLAoA0VhrAgAAEIYNDUAAQgAAFDCWDQhgpDWBCAAAQwaGoAAhCAgKEEMGhDhSEsCEAAAhg0NQABCEDAUAIYtKHCEBYEIAABDJoagAAEIGAoAQzaUGEICwIQgAAGTQ1AAAIQMJQABm2oMIQFAQhAAIOmBiAAAQgYSgCDNlQYwoIABCCAQVMDEIAABAwlgEEbKgxhQQACEMCgqQEIQAAChhLAoA0VhrAgAAEIYNDUAAQgAAFDCWDQhgpDWBCAAAQwaGoAAhCAgKEEMGhDhSEsCEAAAhg0NQABCEDAUAIYtKHCEBYEIAABDJoagAAEIGAoAQzaUGEICwIQgAAGTQ1AAAIQMJQABm2oMIQFAQhAAIOmBiAAAQgYSgCDNlQYwoIABCCAQVMDEIAABAwlgEEbKgxhQQACEMCgqQEIQAAChhLAoA0VhrAgAAEIYNDUAAQgAAFDCWDQhgpDWBCAAAQwaGoAAhCAgKEEMGhDhSEsCEAAAhg0NQABCEDAUAIYtKHCEBYEIAABDJoagAAEIGAoAQzaUGEICwIQgAAGTQ1AAAIQMJQABm2oMIQFAQhAAIOmBiAAAQgYSgCDNlQYwoIABCCAQVMDEIAABAwlgEEbKgxhQQACEMCgqQEIQAAChhLAoA0VhrAgAAEIYNDUAAQgAAFDCWDQhgpDWBCAAAQwaGoAAhCAgKEEMGhDhSEsCEAAAhg0NQABCEDAUAIYtKHCEBYEIAABDJoagAAEIGAoAQzaUGEICwIQgAAGTQ1AAAIQMJQABm2oMIQFAQhAAIOmBiAAAQgYSgCDNlQYwoIABCCAQVMDEIAABAwlgEEbKgxhQQACEMCgqQEIQAAChhLAoA0VhrAgAAEIYNDUAAQgAAFDCWDQhgpDWBCAAAQwaGoAAhCAgKEEMGhDhSEsCEAAAhg0NQABCEDAUAIYtKHCEBYEIAABDJoagAAEIGAoAQzaUGEICwIQgAAGTQ1AAAIQMJQABm2oMIQFAQhAAIOmBiAAAQgYSgCDNlQYwoIABCCAQVMDEIAABAwlgEEbKgxhQQACEMCgqQEIQAAChhLAoA0VhrAgAAEIYNDUAAQgAAFDCWDQhgpDWBCAAAQwaGoAAhCAgKEEMGhDhSEsCEAAAhg0NQABCEDAUAIYtKHCEBYEIAABDJoagAAEIGAoAQzaUGEICwIQgAAGTQ1AAAIQMJQABm2oMIQFAQhAAIOmBiAAAQgYSgCDNlQYwoIABCCAQVMDEIAABAwlgEEbKgxhQQACEMCgqQEIQAAChhLAoA0VhrAgAAEIYNDUAAQgAAFDCWDQhgpDWBCAAAQwaGoAAhCAgKEEMGhDhSEsCEAAAhg0NQABCEDAUAIYtKHCEBYEIAABDJoagAAEIGAoAQzaUGEICwIQgAAGTQ1AAAIQMJQABm2oMIQFAQhAAIOmBiAAAQgYSgCDNlQYwoIABCCAQVMDEIAABAwlgEEbKgxhQQACEMCgqQEIQAAChhLAoA0VhrAgAAEIYNDUAAQgAAFDCWDQhgpDWBCAAAQwaGoAAhCAgKEEMGhDhSEsCEAAAhg0NQABCEDAUAIYtKHCEBYEIAABDJoagAAEIGAoAQzaUGEICwIQgAAGTQ1AAAIQMJQABm2oMIQFAQhAAIOmBiAAAQgYSgCDNlQYwoIABCCAQVMDEIAABAwlgEEbKgxhQQACEMCgqQEIQAAChhLAoA0VhrAgAAEIYNDUAAQgAAFDCWDQhgpDWBCAAAQwaGoAAhCAgKEEMGhDhSEsCEAAAhg0NQABCEDAUAIYtKHCEBYEIAABDJoagAAEIGAoAQzaUGEICwIQgAAGTQ1AAAIQMJQABm2oMIQFAQhAAIOmBiAAAQgYSgCDNlQYwoIABCCAQVMDEIAABAwlgEEbKgxhQQACEMCgqQEIQAAChhLAoA0VhrAgAAEIYNDUAAQgAAFDCWDQhgpDWBCAAAQwaGoAAhCAgKEEMGhDhSEsCEAAAhg0NQABCEDAUAIYtKHCEBYEIAABDJoagAAEIGAoAQzaUGEICwIQgAAGTQ1AAAIQMJQABm2oMIQFAQhAAIOmBiAAAQgYSgCDNlQYwoIABCCAQVMDEIAABAwlgEEbKgxhQQACEMCgqQEIQAAChhLAoA0VhrAgAAEIYNDUAAQgAAFDCWDQhgpDWBCAAAQwaGoAAhCAgKEEMGhDhSEsCEAAAhj0kRr4wQ9+sJLJZD4Qx/FcHMe1UqnUaLVaVzzPiwuFQn48Ht+IouhWqVSaj+O4rWN83/eSJCn5vt/rdrs3i8Xi5NFHH91ztbSeeOKJiu/7zS9+8Ys3lOMPf/jDs77v3/nYxz7WczVn5bWxseGvrq42fd+vRVFUieO4ns1mF+I4LhaLxZXxeJzxfX8+k8kESZLkwjDsViqVuXa7/UoYhndLpdLE9/0rjzzyyGsuc3oncnvyySfrpVJpIYqiXrFY7Hz84x8fvhPXtfEa1hr0xsZGLp/Pn5ubm5Op3snn860wDJPFxcXhRz/60cG9iKFG12w214IgWJIpe553olgsXphMJvPj8dj3fb80Go06o9GoHUXRIJ/Px0EQJHEc98bjcdf3/Yrnef0oinYXFhbWb9++/bOFhYXK4eFhq9FoxAcHB1cee+yx9q+L5bvf/e7pfD4/zOVy3U984hNdz/OSo8crz42Njehe8vltHvO9731vOYqiE5PJZCFJEn84HG7ncrlxrVZbyefzi1EUHU4mk63JZOLlcrlJNpu98+lPf/ruXzemZ599tjIYDHIXL178tfz+utfXed/4xjeONRqNh33fz/m+H/V6vbuFQiFbLBbXBoNBFEXRRO9luJPJJIiiKJvNZmu5XG4lSZLKZDLRB3XP8+qDwWDX87ya9Mvn85kkSQZBEFS3t7d/4XneREyiKGp5nnfT9/0Xv/SlL22+ndhdOveZZ56ZC8OwNBwOq41G48J4PI5Go1G3VCpl4zjeHY1GW0EQdC5evDh2Ke97yeUdMegnnnjiI81m84PZbHbz9u3b/75UKmn0WVYAFy9efPleAvn617++kM/nq91ut5ckSeh5Xj4IgiCXy2UzmUyczWaDMAwLURTVstnssu/75clkEjabTZlGezweqyGP4jju67dMJKeTs9lxr9fb1ii4WCyW9LnnecHs/KIaVzabrarB+b6/lMvl7huPxwue561Xq9W5V1999c8WFhbem81mVUDXoyjqZDKZgYonn8/34zhWS+4kSdKKoqgfBMFgMBjcnpuba+7s7FyrVCoabSVhGB5ms1mZl0bimclkMi6VSkvValUjhf0kSRR3nMvlfOWtc0ajUU/3nUwm2SAIynEch+PxuJ/NZpXXUK98Pl8YDof92Si/6nmevgizWYWXzx4eHv7iK1/5yv9l/PeiiUbLcRwfn0wmSS6XU8cxHTnKsHzfT4rF4lyj0Vjb29u7nsvlMsVisTIcDg+jKBoHQRBGUXRXjS0Igm42m+1JjiiKcjPjk5F5nU5nkMvl1nzfX06SpD6ZTOY0Ms3lcvUoijK7u7svzwyvN5lMtrPZ7PbXvva12/cS/1sd861vfasURdEDmUxGxrtQrVbP6rg4jjO6X7lcXg6CYC0Mw9j3fRlHnCSJRr8FPSlJ4ziO9bdMuD2ZTDKFQmFReqpGkyQZFotF6asnikm3293WCDtJkl6v17scRZE6tm4ul9ufTCa3h8Ph5sbGRvc35fPcc89lL1++PC82SZLkwzAcep5XbTabx6S96i+OY3UAvUKhED7yyCO/8Zq/6Z7PPPNM8bc9etUAxff9YhAE06ePTCZTG4/H+UKhUNzd3b1dKBSUR0e/1bDCMJw0Go1CHMdqxyO1ZbUpaXJ4eDjVoFQqVaMoyg+Hw0T8V1dX2/1+X7XpPf744/u/Ke97+X5jY6NYLpfnisXiCXXuuVyuEIZhW1qovegnCIJJGIZRpVKpKT7P8+4o7s997nO793IPHfO2DfrZZ5/9o+Fw+C497kdR9D+CINiqVqurg8Gg3e129zudjkaTKixfj4PVanVpMpnIW/ZzuVwln8/rsVG/l7PZbLnf7x+MRiMZTy0IgkXBT5KkqxFrGIYy4EKpVLovl8s1oigS+LtBEGRyuZwaVE8jORlYtVpdrtfrzcPDw2uj0eiu7/t53U8mF0WR8g5Go9EgSRIZvYyjmslkVieTSb3b7R7L5/PvPXbs2JTj3t7etAHXarWM53ndnZ2dn00mk8FoNLrRaDSGYRi2+v3+1srKyup4PB7Pz8+XlIfneRphjUNV1WQynEwmEm+cz+fLnucN1DE0m80Lw+GwNRwOb8uQgyDIVyqVRRlst9vdnUwmxeXl5ZO7u7s3wzAczM/PL4zHY+Uggxe3RbFUZ1UsFjW6UzEoTvGY7O/vb47H4z1PlRwEvgxF5yVJEh0eHm7qOOlVKBRkRoPxeKzRvOLvtFqtzfPnz3+o3W7fPDg4uCXz9zyvNB6PpcNQDatWq0knNRiNetrZbLbQbDbPyWD7/b4KUp2WP+swC0EQlDKZjK5TyeVyMra5JEmW+/1+JIMulUrnNHIeDocTFXa/379aKBS8fD6vTkkmf3c0Gl3p9/ubYRh2FIs0Ur3kcrmqri824/F42ggWFhZOylTVUKMoGqlz/D+D53K5XNaTi4zYK5fLZ8vl8nuHw2Gn1+vdHo/HyWAwUEdY9n2/rkamGlWHnclkwkwmU6hUKoE6jsFgkNaF3rc7nc4b5XJZBq4YRjs7O7vqmGSo+Xzer1arqr2dJEl2VEu9Xu+WDKher58sFAqqz1ideaFQWJB+e3t7dzXQ0NSK4i4UCkvirhG7nvDUSWpAE4bhTQ0M1A40QNK99KQnY4jjeCydDw4ObmowUalUjpXL5YqeCm/evPn66urqg/l8fl76R1E0jON4pA6pXC6vtFqtN4bDYc/zvEK1Wp2X1up41MnGcZytVCrlwWBwqEGR6jKfz5d6vZ6eJjRCKGo6cDZQkolmNEhRnfT7/Z0gCCqzzlG1MygWi7p2ZjQaxSdOnHh/r9fbabfbN5RLNpuV2empRB6yrPrb3d3dmpubO5HNZovKUU+uqr96vb6aJMm42+0eTH750oBKsef0RKzBRTarcV8mmyTJfhzHXWFXbLPanD4pqQPsdrs3CoXCaj6f18AtHo1G+2KUz+cbmoZRe9FUTKVSkee18vm8Bnq6+EQ/w+Fwr1qtLqot9Ho9xbs2HA5f/NSnPnVPT1Bvy6CTJPnhz3/+8/efOHHiQpIkmWvXrj1fr9fLS0tLZ/SIKCh3797dm5+fP6HvZQ6NRkONKROGoUxk+v7oS8foR6ar7zWqmfYknjc1SV3n6Dm/+MUvpteUeWpUM2usGtW8eVmdo/P10rXT44bDYebg4CDT6/VUFNN76tjd3d3pfefn5zM3b95UUWXOnDmjEeL07xs3bui94N9utVo/DcPw+tmzZ8+r+M+dO/eu9fX1Y71e76BWqy1mMpniaDRSBxC3Wq3Lt27d+un58+f/VbPZnNN99VLsmjrpdruHg8FgpCL3PM8fDAYyz+ri4mLm0qVL+6PRKDx58uR0vjPNc9ZpTPNTnBrJpi/lqs/ELc1ZeaXHKH99rnOVu/7udruJTET6XLt27S8efvjhfyAee3t7L6kTVVF2u92tdrt9RaPE7e3t14bD4UG73b46Pz+/duHChX9eq9XOZ7PZ5tLSkvKexpBqOBt5TjnrfRpbt9udvlduL730Uubw8DDz0EMPTZlLS/3WT6qhjlXMs7nfN++R5q5c0uNnjX56z1RznaccW61WJBPyPG85k8nM7e7uvq78yuXyyZWVlZM6p1QqTTVaXV3NNJvN6d/60UsGrfe67tWrVzOXL1/WwEODhoE+O378+H39fj+Jomjl9OnTmfX19Wlt6Uf5V6vV6fujuqV/697tdnuaf8oqfa96FQP9rePSa4q1PpOmqf76XsfqWv1+v6XBzWAwuLO/v//y0tLSw6pX8VC8yufw8FAj16o6qePHj68cHh5qhB5XKpWcrq17pPUkBjpP10/brQZmarIy00ajUTza/nR8v9/P7O/vt/TkoVrr9/uT559//gsyw2q1ur6/v3/7/Pnz//K+++77F81ms6GOzPf9UAMHvWZPVJlOpzOs1WrFNJbZwGSau2JS3JVKRYMD9chvckr9Y8ZFxqyRu54QE+Ups1cnH0WRnvIKGpQoZ1039bG0vYm76kjXTzXVlJY62eFw2C0Wi9XRaHR49erV/65B0erq6ntffPHFf/viiy/+u0cfffQ3TsW+LYMeDAbX2u32yaWlJTWUwfXr13+uZPv9fnFnZ6e1vr7+u4VCoSSDUYIqAiWSvvS3Glma2FHR04YoMfW5CuNXzUdFqnMFXMB0Pf1Ww9Q5+k7XT1+CmxqDPtP7ra2t6W+dp3uoyFqt1rSIKpXK1Lhv3bo1vY4+U4NSI9M9ZSTHjh0b67H2xIkTo+eff/7P3/3ud5+7du3aa2fOnDl169at3tra2gfX19enoy0ZsopIPNRYdM3Nzc1pvGEYXtUIIJfLLQVBUNcobjgcLq6srEzvq3PVESnWer0+jWF/f38ar/4+WnRpIaXmJRapMaoBpjxnI5rM9evXNQ0xWVhY0BTStOB0Xb2Xtjs7O2Jyt1qtrqjT0jV0jOJXfC+88MKfhGG48+CDD/4zTduIn+KRob3VKzUM1UTKXrnoPoop/X3//fdPecsA09oQB/FQLczNzU11Uyx6pYalvHWMvtdnqUGnptrpdKa6qlMQ0xdeeKF/7dq1/xRFUbFSqXxgcXGxvry8nNGPOgrloXyUb1pPij01tNQwVCeXLl3S+sTLSZLcarfbh+fOnXt4PB43crnc+rve9a7pNRVb2umkg460fRytV+Wa3jfNLzVq6SMdpH36OtoRp/WdDj50npippvVeebVaLY0m6ydPnpwOVNIYxEe661z9Tttg2uGJeVpjaTtNB0DpgEC6ph2z9Dk6qNLfurZiUQ4aeFy6dOnJg4ODq81m8/f0FLS6uvr+fD5/WvnpGHE5Wue6b1qrej9rQ9PcUj1ST9D3qc8ornQgpvN1zBFfkTl7+hkOh9FgMOgtLS01xENPV/l8vq56TI9Pa/co99mgK9L6097e3ubi4uKJfr9/a3d397X19fUPrK6uPvD888//0Yc+9KGn37Jx/MqHb8ugt7e3f9RqtU5ubm7qEftSs9lcPX/+/HvL5fLizs5OWK/XF7e3t9vLy8sNJZaaY9ow0x73aExHe9t0lKPv38qgU4NPi0TXE7y0yH+15z56H50rgQRXhZI2AH2mgtD3uucrr7wyneJYW1t78zPFnzaQ2fSKzKD7k5/85H/Ozc3l7969+9P3ve99/+Tq1auXL1y48I+Wl5drahAyBRWZikgjf43GZCI7OzvtK1euPHN4eHhzaWnp7zcajfu14BQEwbpMSvfXeTIYmZ86ORmlDEZGr/dpx5c+IaRPHKmxiUVqvEeNRvlvbm7eTJJkb2Fh4cF6vZ7XNdQoVehp4SsG3UN/655ioPiVV6/X07ROIF537tyZMlXDlhbpKC5twEc7y/Qz3ev111+fPp3onhqtpiNmmaAMUp1aOipUHmkno+vpnspJ8el3ajRHOy2xSo1eOszmiTUKm5rT5cuXDzc3N//jyZMn/+A973nP9BqKS9Ncql3ledRo9FlqUvpOdaPjX3755VGn0/nLbrd7fWdn5+ri4uIpPfKWy+X7Tp069cEgCEa9Xk+fL87Pz2tx8U6j0bivXC5r7WAaV2psul46+tO906fCtO7T499q4JFyTjswXSut9XSwoPn1brfri61qXvdW53j79u2d8+fPL0pfaa3rK9/U5NLR41t1CL+qs45R7Km5p09UykFx6Pp37969pGmaW7du/SQIgpUHHnjgD9Rx6hjFpWmaYrEohtO09Pls6ibWDJs6dz3FtVqtP9dUo1hXKpX719fXL+geqsG0fR/tAI/6ga6nv2ftRTuzNI2j6T5Ns2nObFAoFLS2Nj1NTPRKa0B56LudnZ3Xq9XqMe3oarfb1zVPrTUyTbGePn36A3qI/9GPfvSHH/7wh//Db92gb9y48Z/feOONG1tbWy/W6/Vjvu9rcS5aWlr6nXK5fF47LF599dX/tri4+Dvz8/MPzHr/iRavZIoSTbDTRzQ1Fv3ouLSxSVwdo8aePt6lBaLjNALW57qeAKm4VQQqXs0dnjhxIpc+luh4fa/GqkYp4VIjUM8nE0pH0ukoT6Mivc6dOzcdsep87RbR/HChUPA7nc6O5rmPHTt2VoK89NJLf3rhwoXf14KQ5pNPnTr19zS/NplM9jV3Xq1W106dOlXf2to6PDw87KkT0zzbjRs3/kRzmAsLC+/RlKPu2Ww2H1BRVKvV2mzEl1tbW5vOCW1vb09H0TI1GZpyT0c2KkrxSkcxOrfdbmtKJtIj25HH4tH29vb/KpVKzU6n8+qdO3f+cm1t7e+eOXPmH7fb7a1Wq/XisWPH/qHmf/XsV6/XtZtBI26NEGONDra3tzfX1tbODwaD7u7u7uVarXaq2WweT2NRrOnjYTqST0eN6UhEf+tHnc/ly5enmupYaaMRun7UQaUdrvLTj667tbV15/Lly382Nze3vLq6+pAeKWePvTmNhPSYWi6XNSqa1pSM6s6dO5qblY6aU9Q8ZHlzc/PnyndlZeX3a7VaNe1k1EGqnjStpfPVWaSP9Lq/fq5cuRIeHBzcyWazh3fv3n3llzNpE82J7mgaaDweH2peV1N94/H4QCOqRqOxlM1mo+3t7atnz5793eXl5Ye0TjE3N3d8YWHhfLPZbMpMdnZ2tOinHS3T0b5iUf2qY1fHIO3TUWH6JJl2xOkIUueoDXW73duDwUCF99r+/v4b+Xx+7qGHHvrDg4OD7Xa7vdtsNh8cDAa3tre3f3L8+PH3ra6uvjvVMe2Q1D6PThmkT4UytPF43CuVSlpE1qKylj0U460kSbz5+fnVfr8vJlelreaTZVqaO79+/fpfnD59+p+2Wq2fxXFcUYd1586dFxqNxrr41mo1tZtjYikDnu2i6g8Gg73Z08Cunjq1HtXpdLRg7dVqtTNnzpz515obDsNwbzKZ9LWeVavV1rQeNhwOd7WKXq/X17XGorUDzaFrfn9Wj5pbjTTfXSwWm4pB7VKL3uKl833fj1dXV+/XOsa1a9f+q+bsb9269cLS0tLf0ZpZv9/fPXv27PvDMNxXu1M+nU5n78c//vG/+chHPvJffusGrRs8/fTT2n70e1qECIJgrG1WmUxmMUkSLaho3nWzWCxqVV47JRLtQlBvpMcYTa9KKAk4a0zqtaYTrBJPxqCFDJ3med70OVba6wuZn7ZHaXFK50+r4ZfnqVC0gKWFNPX8c1qsUQFpZ8is14u0wKFdI9pVoAUNPQV5nqf5Mi3GrHqetzIT/7rmlHzfP9DiThzHh7OtcFqE0e4KLWJq1VYmrB0oilfHq0fWjoyi5qaV52xuWbtGfC0ahWHYX1pa0sLkSLsytG1LAwTFroVLxaXjZguc6roDGaR2eKiQtNio9cdZ7lrV9rS6oePERn/P5sLag8FAC2paSNR5WkyTeWmhUwuR4qsFTY0ctBgnnRSLdpVo2KIdMdNdNdJJeswWbBOZzoyfFkBH0m+Wh7YpTkPSNVSgiltGlV5XCzG9Xk+5a4FWP1o8bWhBUYtsvu+39/f3X/E8TzsWpvGI7Sx/xS+j1u4WzfFqzlANTCdrt4wWltSgtNKvRT7VmL7T0GfaAWo3RKVSOakHNNWGFgVVt7N6HGguUtfxPE8sVWvawaHFRi2GameRRng9aaFFPF1D3GdztNIlOTg42NKitWpFNaHF3FktK5exYtKCsH60iCxT0LGab1XtdLvdlnjMFtQUp+bstNCghbXR4uKi5pEku86NtbNBNSiz1A4jLX7pc+00SEeJWofTgmscx+p4S/otPrO2IR3FTzHndH+tO6gutMAm/YvFonZc6IlQi2tvbgtNR6epPuKuRTUt3GkRWvcIw/BgtvNJ9/MbjYba4HSKTffT1kTVe6qX/EK3ErckSZTb1B80OJoZ6sHnP//5qTcc3aL6ne9850QQBNoksKdOWszz+bx+a5FbtSAGQblcPqYdVGEYbhcKhfbe3p7aj5pJdTwea1G7LPbScOYv0zaijnY8Hu/Pz8/fP1s0VWyKVR6kYyS2NPe0eSGTycjQR5/5zGe00+avbKX9dUb9tqY4jl74j//4j5fG43FJo9bZCuiigpsZtOYQtHNABTHWbgWtzKoHV4NTMspLIwhtR9KS9Eyw3le/+tX/55YUbT3a2tpSwyjkcjk1kukqksxwtq2lrtVpmaeKRcU925I0bRizFWk1VJltWqQyEu1v1gq+3+v1pttyfN+XgWobjbb0dR577DHt0kiefvrpcq/XK77V1iZ9t7+/H6R7ob/5zW8uep7X1P1UXDK0paWllWw2q73W2noV6XEqn89HYRhqJ4q27ky35sm8kiQpaCVZzGTC6qdkhjJBxT8zHjVgbT1SHlqAkaGEKsjZVjDt8w1kwJPJZO/xxx/XboI3C0Z7w3WddO/17G/1iXq8qyl2NRRt5YvjuKoFYbmwDFJmoLcqzLSgtXNC72dFOz1G8Whnhx79ZztDpp3KrJHJUBWM0KlcAAAIoUlEQVSrduTsfOELX9C2xnt6abDQ6XRkdvG9LMD86kVVT+12e1Wj6kKhoN0MYqjdFDJPpRnL8GcmG2vEKnOZrdpri52MVPXc931f28P6Fy9enDba/9/XxsaGOo/gy1/+8nQlWbG99tprMjnVpgxjupDbaDRWZjUt81cnpg6wk8vl9j772c++I1vK3ir2J598UusVarNqI5ONjQ0r/5lEnfH3v/997bf/K3usxXt/f9/X5/pfhFmnGDebTe1CyaW6PPXUUxf0JBRF0d7Ozs7+xsbGLxc93qHXO2bQTz31lB4tNZLUfsTpaKRYLPqf/OQnfzlHYNHrueeey29vb8v4R+/EftK/6dS1f/Xg4KDYbre7v81/cvn2t789V6vVTmuHiu/70//skFkoX3U22gqVy+VGN27c6L3Thfs3zZT7QeBvg8A7ZtB/G8FzTwhAAAIuE8CgXVaX3CAAAasJYNBWy0fwEICAywQwaJfVJTcIQMBqAhi01fIRPAQg4DIBDNpldckNAhCwmgAGbbV8BA8BCLhMAIN2WV1ygwAErCaAQVstH8FDAAIuE8CgXVaX3CAAAasJYNBWy0fwEICAywQwaJfVJTcIQMBqAhi01fIRPAQg4DIBDNpldckNAhCwmgAGbbV8BA8BCLhMAIN2WV1ygwAErCaAQVstH8FDAAIuE8CgXVaX3CAAAasJYNBWy0fwEICAywQwaJfVJTcIQMBqAhi01fIRPAQg4DIBDNpldckNAhCwmgAGbbV8BA8BCLhMAIN2WV1ygwAErCaAQVstH8FDAAIuE8CgXVaX3CAAAasJYNBWy0fwEICAywQwaJfVJTcIQMBqAhi01fIRPAQg4DIBDNpldckNAhCwmgAGbbV8BA8BCLhMAIN2WV1ygwAErCaAQVstH8FDAAIuE8CgXVaX3CAAAasJYNBWy0fwEICAywQwaJfVJTcIQMBqAhi01fIRPAQg4DIBDNpldckNAhCwmgAGbbV8BA8BCLhMAIN2WV1ygwAErCaAQVstH8FDAAIuE8CgXVaX3CAAAasJYNBWy0fwEICAywQwaJfVJTcIQMBqAhi01fIRPAQg4DIBDNpldckNAhCwmgAGbbV8BA8BCLhMAIN2WV1ygwAErCaAQVstH8FDAAIuE8CgXVaX3CAAAasJYNBWy0fwEICAywQwaJfVJTcIQMBqAhi01fIRPAQg4DIBDNpldckNAhCwmgAGbbV8BA8BCLhMAIN2WV1ygwAErCaAQVstH8FDAAIuE8CgXVaX3CAAAasJYNBWy0fwEICAywQwaJfVJTcIQMBqAhi01fIRPAQg4DIBDNpldckNAhCwmgAGbbV8BA8BCLhMAIN2WV1ygwAErCaAQVstH8FDAAIuE8CgXVaX3CAAAasJYNBWy0fwEICAywQwaJfVJTcIQMBqAhi01fIRPAQg4DIBDNpldckNAhCwmgAGbbV8BA8BCLhMAIN2WV1ygwAErCaAQVstH8FDAAIuE8CgXVaX3CAAAasJYNBWy0fwEICAywQwaJfVJTcIQMBqAhi01fIRPAQg4DIBDNpldckNAhCwmgAGbbV8BA8BCLhMAIN2WV1ygwAErCaAQVstH8FDAAIuE8CgXVaX3CAAAasJYNBWy0fwEICAywQwaJfVJTcIQMBqAhi01fIRPAQg4DIBDNpldckNAhCwmgAGbbV8BA8BCLhMAIN2WV1ygwAErCaAQVstH8FDAAIuE8CgXVaX3CAAAasJYNBWy0fwEICAywQwaJfVJTcIQMBqAhi01fIRPAQg4DIBDNpldckNAhCwmgAGbbV8BA8BCLhMAIN2WV1ygwAErCaAQVstH8FDAAIuE8CgXVaX3CAAAasJYNBWy0fwEICAywQwaJfVJTcIQMBqAhi01fIRPAQg4DIBDNpldckNAhCwmgAGbbV8BA8BCLhMAIN2WV1ygwAErCaAQVstH8FDAAIuE8CgXVaX3CAAAasJYNBWy0fwEICAywQwaJfVJTcIQMBqAhi01fIRPAQg4DIBDNpldckNAhCwmgAGbbV8BA8BCLhMAIN2WV1ygwAErCaAQVstH8FDAAIuE8CgXVaX3CAAAasJYNBWy0fwEICAywQwaJfVJTcIQMBqAhi01fIRPAQg4DIBDNpldckNAhCwmgAGbbV8BA8BCLhMAIN2WV1ygwAErCaAQVstH8FDAAIuE8CgXVaX3CAAAasJYNBWy0fwEICAywQwaJfVJTcIQMBqAhi01fIRPAQg4DIBDNpldckNAhCwmgAGbbV8BA8BCLhMAIN2WV1ygwAErCaAQVstH8FDAAIuE8CgXVaX3CAAAasJYNBWy0fwEICAywQwaJfVJTcIQMBqAhi01fIRPAQg4DIBDNpldckNAhCwmgAGbbV8BA8BCLhMAIN2WV1ygwAErCaAQVstH8FDAAIuE8CgXVaX3CAAAasJYNBWy0fwEICAywQwaJfVJTcIQMBqAhi01fIRPAQg4DIBDNpldckNAhCwmgAGbbV8BA8BCLhMAIN2WV1ygwAErCaAQVstH8FDAAIuE8CgXVaX3CAAAasJYNBWy0fwEICAywQwaJfVJTcIQMBqAhi01fIRPAQg4DIBDNpldckNAhCwmgAGbbV8BA8BCLhMAIN2WV1ygwAErCaAQVstH8FDAAIuE8CgXVaX3CAAAasJYNBWy0fwEICAywQwaJfVJTcIQMBqAhi01fIRPAQg4DIBDNpldckNAhCwmgAGbbV8BA8BCLhMAIN2WV1ygwAErCaAQVstH8FDAAIuE8CgXVaX3CAAAasJYNBWy0fwEICAywQwaJfVJTcIQMBqAhi01fIRPAQg4DIBDNpldckNAhCwmgAGbbV8BA8BCLhMAIN2WV1ygwAErCaAQVstH8FDAAIuE8CgXVaX3CAAAasJYNBWy0fwEICAywQwaJfVJTcIQMBqAhi01fIRPAQg4DKB/w0yU3hohNXm7wAAAABJRU5ErkJggg==;direction=south;" vertex="1" parent="1">
          <mxGeometry x="-900" y="289" width="166" height="166" as="geometry" />
        </mxCell>
        <mxCell id="ISqIVDaVjtGfIf4uTUZB-51" value="&lt;font face=&quot;Times New Roman&quot;&gt;Batista&lt;/font&gt;" style="rounded=0;whiteSpace=wrap;html=1;fillColor=#B0B0B0;" vertex="1" parent="1">
          <mxGeometry x="-955" y="315" width="100" height="20" as="geometry" />
        </mxCell>
        <mxCell id="ISqIVDaVjtGfIf4uTUZB-52" value="&lt;font face=&quot;Times New Roman&quot;&gt;Adolfo&lt;/font&gt;" style="rounded=0;whiteSpace=wrap;html=1;fillColor=#B0B0B0;" vertex="1" parent="1">
          <mxGeometry x="-955" y="352" width="100" height="20" as="geometry" />
        </mxCell>
        <mxCell id="ISqIVDaVjtGfIf4uTUZB-53" value="&lt;font face=&quot;Times New Roman&quot;&gt;Hitler&lt;/font&gt;" style="rounded=0;whiteSpace=wrap;html=1;fillColor=#B0B0B0;" vertex="1" parent="1">
          <mxGeometry x="-955" y="391" width="100" height="20" as="geometry" />
        </mxCell>
        <mxCell id="ISqIVDaVjtGfIf4uTUZB-54" value="&lt;font face=&quot;Times New Roman&quot;&gt;Josefina&lt;/font&gt;" style="rounded=0;whiteSpace=wrap;html=1;fillColor=#B0B0B0;" vertex="1" parent="1">
          <mxGeometry x="-955" y="430" width="100" height="20" as="geometry" />
        </mxCell>
        <mxCell id="ISqIVDaVjtGfIf4uTUZB-55" value="&lt;font style=&quot;font-size: 10px;&quot; face=&quot;Times New Roman&quot;&gt;(11)99941 - 2835&lt;/font&gt;" style="rounded=0;whiteSpace=wrap;html=1;fillColor=#B0B0B0;" vertex="1" parent="1">
          <mxGeometry x="-780" y="317" width="100" height="20" as="geometry" />
        </mxCell>
        <mxCell id="ISqIVDaVjtGfIf4uTUZB-56" value="&lt;font style=&quot;font-size: 10px;&quot; face=&quot;Times New Roman&quot;&gt;(13)99864 - 4855&lt;/font&gt;" style="rounded=0;whiteSpace=wrap;html=1;fillColor=#B0B0B0;" vertex="1" parent="1">
          <mxGeometry x="-780" y="353" width="100" height="20" as="geometry" />
        </mxCell>
        <mxCell id="ISqIVDaVjtGfIf4uTUZB-57" value="&lt;font style=&quot;font-size: 10px;&quot; face=&quot;Times New Roman&quot;&gt;(77)99671 - 9980&lt;/font&gt;" style="rounded=0;whiteSpace=wrap;html=1;fillColor=#B0B0B0;" vertex="1" parent="1">
          <mxGeometry x="-780" y="393" width="100" height="20" as="geometry" />
        </mxCell>
        <mxCell id="ISqIVDaVjtGfIf4uTUZB-59" value="&lt;font style=&quot;font-size: 10px;&quot; face=&quot;Times New Roman&quot;&gt;(43)99958 - 4891&lt;/font&gt;" style="rounded=0;whiteSpace=wrap;html=1;fillColor=#B0B0B0;" vertex="1" parent="1">
          <mxGeometry x="-780" y="431" width="100" height="20" as="geometry" />
        </mxCell>
        <mxCell id="ISqIVDaVjtGfIf4uTUZB-60" value="&lt;font face=&quot;Times New Roman&quot; style=&quot;font-size: 12px;&quot;&gt;Assis&lt;/font&gt;" style="rounded=0;whiteSpace=wrap;html=1;fillColor=#B0B0B0;" vertex="1" parent="1">
          <mxGeometry x="-590" y="318" width="90" height="20" as="geometry" />
        </mxCell>
        <mxCell id="ISqIVDaVjtGfIf4uTUZB-61" value="&lt;span style=&quot;font-family: &amp;quot;Times New Roman&amp;quot;;&quot;&gt;Praia Grande&lt;/span&gt;" style="rounded=0;whiteSpace=wrap;html=1;fillColor=#B0B0B0;" vertex="1" parent="1">
          <mxGeometry x="-590" y="355" width="90" height="20" as="geometry" />
        </mxCell>
        <mxCell id="ISqIVDaVjtGfIf4uTUZB-62" value="&lt;span style=&quot;font-family: &amp;quot;Times New Roman&amp;quot;;&quot;&gt;Barreiras&lt;/span&gt;" style="rounded=0;whiteSpace=wrap;html=1;fillColor=#B0B0B0;" vertex="1" parent="1">
          <mxGeometry x="-590" y="393" width="90" height="20" as="geometry" />
        </mxCell>
        <mxCell id="ISqIVDaVjtGfIf4uTUZB-63" value="&lt;font style=&quot;font-size: 12px;&quot; face=&quot;Times New Roman&quot;&gt;Curitiba&lt;/font&gt;" style="rounded=0;whiteSpace=wrap;html=1;fillColor=#B0B0B0;" vertex="1" parent="1">
          <mxGeometry x="-590" y="433" width="90" height="20" as="geometry" />
        </mxCell>
        <mxCell id="ISqIVDaVjtGfIf4uTUZB-70" value="" style="shape=image;html=1;verticalLabelPosition=bottom;verticalAlign=top;imageAspect=1;aspect=fixed;image=data:image/png,iVBORw0KGgoAAAANSUhEUgAAAWgAAAFoCAYAAAB65WHVAAAAAXNSR0IArs4c6QAAIABJREFUeF7tm1mMJMeZ3yuzKus+uquv6eb03ENyqBUFybuyZNgPhgHZsL2yBS/kB2MF6MIIoiRgqQOk9NJPehAFSaBAyJSMpcAHPxDwk3YfDNpar9ewIZjyQkNpeAzJmZ6ZnqOrr6quMysr0/6XKolemZbGS2o3IvAroNHVVXl83+//xT8iI6K9DC8IQAACEDCSgGdkVAQFAQhAAAIZDJoigAAEIGAoAQzaUGEICwIQgAAGTQ1AAAIQMJQABm2oMIQFAQhAAIOmBiAAAQgYSgCDNlQYwoIABCCAQVMDEIAABAwlgEEbKgxhQQACEMCgqQEIQAAChhLAoA0VhrAgAAEIYNDUAAQgAAFDCWDQhgpDWBCAAAQwaGoAAhCAgKEEMGhDhSEsCEAAAhg0NQABCEDAUAIYtKHCEBYEIAABDJoagAAEIGAoAQzaUGEICwIQgAAGTQ1AAAIQMJQABm2oMIQFAQhAAIOmBiAAAQgYSgCDNlQYwoIABCCAQVMDEIAABAwlgEEbKgxhQQACEMCgqQEIQAAChhLAoA0VhrAgAAEIYNDUAAQgAAFDCWDQhgpDWBCAAAQwaGoAAhCAgKEEMGhDhSEsCEAAAhg0NQABCEDAUAIYtKHCEBYEIAABDJoagAAEIGAoAQzaUGEICwIQgAAGTQ1AAAIQMJQABm2oMIQFAQhAAIOmBiAAAQgYSgCDNlQYwoIABCCAQVMDEIAABAwlgEEbKgxhQQACEMCgqQEIQAAChhLAoA0VhrAgAAEIYNDUAAQgAAFDCWDQhgpDWBCAAAQwaGoAAhCAgKEEMGhDhSEsCEAAAhg0NQABCEDAUAIYtKHCEBYEIAABDJoagAAEIGAoAQzaUGEICwIQgAAGTQ1AAAIQMJQABm2oMIQFAQhAAIOmBiAAAQgYSgCDNlQYwoIABCCAQVMDEIAABAwlgEEbKgxhQQACEMCgqQEIQAAChhLAoA0VhrAgAAEIYNDUAAQgAAFDCWDQhgpDWBCAAAQwaGoAAhCAgKEEMGhDhSEsCEAAAhg0NQABCEDAUAIYtKHCEBYEIAABDJoagAAEIGAoAQzaUGEICwIQgAAGTQ1AAAIQMJQABm2oMIQFAQhAAIOmBiAAAQgYSgCDNlQYwoIABCCAQVMDEIAABAwlgEEbKgxhQQACEMCgqQEIQAAChhLAoA0VhrAgAAEIYNDUAAQgAAFDCWDQhgpDWBCAAAQwaGoAAhCAgKEEMGhDhSEsCEAAAhg0NQABCEDAUAIYtKHCEBYEIAABDJoagAAEIGAoAQzaUGEICwIQgAAGTQ1AAAIQMJQABm2oMIQFAQhAAIOmBiAAAQgYSgCDNlQYwoIABCCAQVMDEIAABAwlgEEbKgxhQQACEMCgqQEIQAAChhLAoA0VhrAgAAEIYNDUAAQgAAFDCWDQhgpDWBCAAAQwaGoAAhCAgKEEMGhDhSEsCEAAAhg0NQABCEDAUAIYtKHCEBYEIAABDJoagAAEIGAoAQzaUGEICwIQgAAGTQ1AAAIQMJQABm2oMIQFAQhAAIOmBiAAAQgYSgCDNlQYwoIABCCAQVMDEIAABAwlgEEbKgxhQQACEMCgqQEIQAAChhLAoA0VhrAgAAEIYNDUAAQgAAFDCWDQhgpDWBCAAAQwaGoAAhCAgKEEMGhDhSEsCEAAAhg0NQABCEDAUAIYtKHCEBYEIAABDJoagAAEIGAoAQzaUGEICwIQgAAGTQ1AAAIQMJQABm2oMIQFAQhAAIOmBiAAAQgYSgCDNlQYwoIABCCAQVMDEIAABAwlgEEbKgxhQQACEMCgqQEIQAAChhLAoA0VhrAgAAEIYNDUAAQgAAFDCWDQhgpDWBCAAAQwaGoAAhCAgKEEMGhDhSEsCEAAAhg0NQABCEDAUAIYtKHCEBYEIAABDJoagAAEIGAoAQzaUGEICwIQgAAGTQ1AAAIQMJQABm2oMIQFAQhAAIOmBiAAAQgYSgCDNlQYwoIABCCAQVMDEIAABAwlgEEbKgxhQQACEMCgqQEIQAAChhLAoA0VhrAgAAEIYNDUAAQgAAFDCWDQhgpDWBCAAAQwaGoAAhCAgKEEMGhDhSEsCEAAAhg0NQABCEDAUAIYtKHCEBYEIAABDJoagAAEIGAoAQzaUGEICwIQgAAGTQ1AAAIQMJQABm2oMIQFAQhAAIOmBiAAAQgYSgCDNlQYwoIABCCAQVMDEIAABAwlgEEbKgxhQQACEMCgqQEIQAAChhLAoA0VhrAgAAEIYNDUAAQgAAFDCWDQhgpDWBCAAAQwaGoAAhCAgKEEMGhDhSEsCEAAAhg0NQABCEDAUAIYtKHCEBYEIAABDJoagAAEIGAoAQzaUGEICwIQgAAGTQ1AAAIQMJQABm2oMIQFAQhAAIOmBiAAAQgYSgCDNlQYwoIABCCAQVMDEIAABAwlgEEbKgxhQQACEMCgqQEIQAAChhLAoA0VhrAgAAEIYNDUAAQgAAFDCWDQhgpDWBCAAAQwaGoAAhCAgKEEMGhDhSEsCEAAAhj0kRr4wQ9+sJLJZD4Qx/FcHMe1UqnUaLVaVzzPiwuFQn48Ht+IouhWqVSaj+O4rWN83/eSJCn5vt/rdrs3i8Xi5NFHH91ztbSeeOKJiu/7zS9+8Ys3lOMPf/jDs77v3/nYxz7WczVn5bWxseGvrq42fd+vRVFUieO4ns1mF+I4LhaLxZXxeJzxfX8+k8kESZLkwjDsViqVuXa7/UoYhndLpdLE9/0rjzzyyGsuc3oncnvyySfrpVJpIYqiXrFY7Hz84x8fvhPXtfEa1hr0xsZGLp/Pn5ubm5Op3snn860wDJPFxcXhRz/60cG9iKFG12w214IgWJIpe553olgsXphMJvPj8dj3fb80Go06o9GoHUXRIJ/Px0EQJHEc98bjcdf3/Yrnef0oinYXFhbWb9++/bOFhYXK4eFhq9FoxAcHB1cee+yx9q+L5bvf/e7pfD4/zOVy3U984hNdz/OSo8crz42Njehe8vltHvO9731vOYqiE5PJZCFJEn84HG7ncrlxrVZbyefzi1EUHU4mk63JZOLlcrlJNpu98+lPf/ruXzemZ599tjIYDHIXL178tfz+utfXed/4xjeONRqNh33fz/m+H/V6vbuFQiFbLBbXBoNBFEXRRO9luJPJJIiiKJvNZmu5XG4lSZLKZDLRB3XP8+qDwWDX87ya9Mvn85kkSQZBEFS3t7d/4XneREyiKGp5nnfT9/0Xv/SlL22+ndhdOveZZ56ZC8OwNBwOq41G48J4PI5Go1G3VCpl4zjeHY1GW0EQdC5evDh2Ke97yeUdMegnnnjiI81m84PZbHbz9u3b/75UKmn0WVYAFy9efPleAvn617++kM/nq91ut5ckSeh5Xj4IgiCXy2UzmUyczWaDMAwLURTVstnssu/75clkEjabTZlGezweqyGP4jju67dMJKeTs9lxr9fb1ii4WCyW9LnnecHs/KIaVzabrarB+b6/lMvl7huPxwue561Xq9W5V1999c8WFhbem81mVUDXoyjqZDKZgYonn8/34zhWS+4kSdKKoqgfBMFgMBjcnpuba+7s7FyrVCoabSVhGB5ms1mZl0bimclkMi6VSkvValUjhf0kSRR3nMvlfOWtc0ajUU/3nUwm2SAIynEch+PxuJ/NZpXXUK98Pl8YDof92Si/6nmevgizWYWXzx4eHv7iK1/5yv9l/PeiiUbLcRwfn0wmSS6XU8cxHTnKsHzfT4rF4lyj0Vjb29u7nsvlMsVisTIcDg+jKBoHQRBGUXRXjS0Igm42m+1JjiiKcjPjk5F5nU5nkMvl1nzfX06SpD6ZTOY0Ms3lcvUoijK7u7svzwyvN5lMtrPZ7PbXvva12/cS/1sd861vfasURdEDmUxGxrtQrVbP6rg4jjO6X7lcXg6CYC0Mw9j3fRlHnCSJRr8FPSlJ4ziO9bdMuD2ZTDKFQmFReqpGkyQZFotF6asnikm3293WCDtJkl6v17scRZE6tm4ul9ufTCa3h8Ph5sbGRvc35fPcc89lL1++PC82SZLkwzAcep5XbTabx6S96i+OY3UAvUKhED7yyCO/8Zq/6Z7PPPNM8bc9etUAxff9YhAE06ePTCZTG4/H+UKhUNzd3b1dKBSUR0e/1bDCMJw0Go1CHMdqxyO1ZbUpaXJ4eDjVoFQqVaMoyg+Hw0T8V1dX2/1+X7XpPf744/u/Ke97+X5jY6NYLpfnisXiCXXuuVyuEIZhW1qovegnCIJJGIZRpVKpKT7P8+4o7s997nO793IPHfO2DfrZZ5/9o+Fw+C497kdR9D+CINiqVqurg8Gg3e129zudjkaTKixfj4PVanVpMpnIW/ZzuVwln8/rsVG/l7PZbLnf7x+MRiMZTy0IgkXBT5KkqxFrGIYy4EKpVLovl8s1oigS+LtBEGRyuZwaVE8jORlYtVpdrtfrzcPDw2uj0eiu7/t53U8mF0WR8g5Go9EgSRIZvYyjmslkVieTSb3b7R7L5/PvPXbs2JTj3t7etAHXarWM53ndnZ2dn00mk8FoNLrRaDSGYRi2+v3+1srKyup4PB7Pz8+XlIfneRphjUNV1WQynEwmEm+cz+fLnucN1DE0m80Lw+GwNRwOb8uQgyDIVyqVRRlst9vdnUwmxeXl5ZO7u7s3wzAczM/PL4zHY+Uggxe3RbFUZ1UsFjW6UzEoTvGY7O/vb47H4z1PlRwEvgxF5yVJEh0eHm7qOOlVKBRkRoPxeKzRvOLvtFqtzfPnz3+o3W7fPDg4uCXz9zyvNB6PpcNQDatWq0knNRiNetrZbLbQbDbPyWD7/b4KUp2WP+swC0EQlDKZjK5TyeVyMra5JEmW+/1+JIMulUrnNHIeDocTFXa/379aKBS8fD6vTkkmf3c0Gl3p9/ubYRh2FIs0Ur3kcrmqri824/F42ggWFhZOylTVUKMoGqlz/D+D53K5XNaTi4zYK5fLZ8vl8nuHw2Gn1+vdHo/HyWAwUEdY9n2/rkamGlWHnclkwkwmU6hUKoE6jsFgkNaF3rc7nc4b5XJZBq4YRjs7O7vqmGSo+Xzer1arqr2dJEl2VEu9Xu+WDKher58sFAqqz1ideaFQWJB+e3t7dzXQ0NSK4i4UCkvirhG7nvDUSWpAE4bhTQ0M1A40QNK99KQnY4jjeCydDw4ObmowUalUjpXL5YqeCm/evPn66urqg/l8fl76R1E0jON4pA6pXC6vtFqtN4bDYc/zvEK1Wp2X1up41MnGcZytVCrlwWBwqEGR6jKfz5d6vZ6eJjRCKGo6cDZQkolmNEhRnfT7/Z0gCCqzzlG1MygWi7p2ZjQaxSdOnHh/r9fbabfbN5RLNpuV2empRB6yrPrb3d3dmpubO5HNZovKUU+uqr96vb6aJMm42+0eTH750oBKsef0RKzBRTarcV8mmyTJfhzHXWFXbLPanD4pqQPsdrs3CoXCaj6f18AtHo1G+2KUz+cbmoZRe9FUTKVSkee18vm8Bnq6+EQ/w+Fwr1qtLqot9Ho9xbs2HA5f/NSnPnVPT1Bvy6CTJPnhz3/+8/efOHHiQpIkmWvXrj1fr9fLS0tLZ/SIKCh3797dm5+fP6HvZQ6NRkONKROGoUxk+v7oS8foR6ar7zWqmfYknjc1SV3n6Dm/+MUvpteUeWpUM2usGtW8eVmdo/P10rXT44bDYebg4CDT6/VUFNN76tjd3d3pfefn5zM3b95UUWXOnDmjEeL07xs3bui94N9utVo/DcPw+tmzZ8+r+M+dO/eu9fX1Y71e76BWqy1mMpniaDRSBxC3Wq3Lt27d+un58+f/VbPZnNN99VLsmjrpdruHg8FgpCL3PM8fDAYyz+ri4mLm0qVL+6PRKDx58uR0vjPNc9ZpTPNTnBrJpi/lqs/ELc1ZeaXHKH99rnOVu/7udruJTET6XLt27S8efvjhfyAee3t7L6kTVVF2u92tdrt9RaPE7e3t14bD4UG73b46Pz+/duHChX9eq9XOZ7PZ5tLSkvKexpBqOBt5TjnrfRpbt9udvlduL730Uubw8DDz0EMPTZlLS/3WT6qhjlXMs7nfN++R5q5c0uNnjX56z1RznaccW61WJBPyPG85k8nM7e7uvq78yuXyyZWVlZM6p1QqTTVaXV3NNJvN6d/60UsGrfe67tWrVzOXL1/WwEODhoE+O378+H39fj+Jomjl9OnTmfX19Wlt6Uf5V6vV6fujuqV/697tdnuaf8oqfa96FQP9rePSa4q1PpOmqf76XsfqWv1+v6XBzWAwuLO/v//y0tLSw6pX8VC8yufw8FAj16o6qePHj68cHh5qhB5XKpWcrq17pPUkBjpP10/brQZmarIy00ajUTza/nR8v9/P7O/vt/TkoVrr9/uT559//gsyw2q1ur6/v3/7/Pnz//K+++77F81ms6GOzPf9UAMHvWZPVJlOpzOs1WrFNJbZwGSau2JS3JVKRYMD9chvckr9Y8ZFxqyRu54QE+Ups1cnH0WRnvIKGpQoZ1039bG0vYm76kjXTzXVlJY62eFw2C0Wi9XRaHR49erV/65B0erq6ntffPHFf/viiy/+u0cfffQ3TsW+LYMeDAbX2u32yaWlJTWUwfXr13+uZPv9fnFnZ6e1vr7+u4VCoSSDUYIqAiWSvvS3Glma2FHR04YoMfW5CuNXzUdFqnMFXMB0Pf1Ww9Q5+k7XT1+CmxqDPtP7ra2t6W+dp3uoyFqt1rSIKpXK1Lhv3bo1vY4+U4NSI9M9ZSTHjh0b67H2xIkTo+eff/7P3/3ud5+7du3aa2fOnDl169at3tra2gfX19enoy0ZsopIPNRYdM3Nzc1pvGEYXtUIIJfLLQVBUNcobjgcLq6srEzvq3PVESnWer0+jWF/f38ar/4+WnRpIaXmJRapMaoBpjxnI5rM9evXNQ0xWVhY0BTStOB0Xb2Xtjs7O2Jyt1qtrqjT0jV0jOJXfC+88MKfhGG48+CDD/4zTduIn+KRob3VKzUM1UTKXrnoPoop/X3//fdPecsA09oQB/FQLczNzU11Uyx6pYalvHWMvtdnqUGnptrpdKa6qlMQ0xdeeKF/7dq1/xRFUbFSqXxgcXGxvry8nNGPOgrloXyUb1pPij01tNQwVCeXLl3S+sTLSZLcarfbh+fOnXt4PB43crnc+rve9a7pNRVb2umkg460fRytV+Wa3jfNLzVq6SMdpH36OtoRp/WdDj50npippvVeebVaLY0m6ydPnpwOVNIYxEe661z9Tttg2uGJeVpjaTtNB0DpgEC6ph2z9Dk6qNLfurZiUQ4aeFy6dOnJg4ODq81m8/f0FLS6uvr+fD5/WvnpGHE5Wue6b1qrej9rQ9PcUj1ST9D3qc8ornQgpvN1zBFfkTl7+hkOh9FgMOgtLS01xENPV/l8vq56TI9Pa/co99mgK9L6097e3ubi4uKJfr9/a3d397X19fUPrK6uPvD888//0Yc+9KGn37Jx/MqHb8ugt7e3f9RqtU5ubm7qEftSs9lcPX/+/HvL5fLizs5OWK/XF7e3t9vLy8sNJZaaY9ow0x73aExHe9t0lKPv38qgU4NPi0TXE7y0yH+15z56H50rgQRXhZI2AH2mgtD3uucrr7wyneJYW1t78zPFnzaQ2fSKzKD7k5/85H/Ozc3l7969+9P3ve99/+Tq1auXL1y48I+Wl5drahAyBRWZikgjf43GZCI7OzvtK1euPHN4eHhzaWnp7zcajfu14BQEwbpMSvfXeTIYmZ86ORmlDEZGr/dpx5c+IaRPHKmxiUVqvEeNRvlvbm7eTJJkb2Fh4cF6vZ7XNdQoVehp4SsG3UN/655ioPiVV6/X07ROIF537tyZMlXDlhbpKC5twEc7y/Qz3ev111+fPp3onhqtpiNmmaAMUp1aOipUHmkno+vpnspJ8el3ajRHOy2xSo1eOszmiTUKm5rT5cuXDzc3N//jyZMn/+A973nP9BqKS9Ncql3ledRo9FlqUvpOdaPjX3755VGn0/nLbrd7fWdn5+ri4uIpPfKWy+X7Tp069cEgCEa9Xk+fL87Pz2tx8U6j0bivXC5r7WAaV2psul46+tO906fCtO7T499q4JFyTjswXSut9XSwoPn1brfri61qXvdW53j79u2d8+fPL0pfaa3rK9/U5NLR41t1CL+qs45R7Km5p09UykFx6Pp37969pGmaW7du/SQIgpUHHnjgD9Rx6hjFpWmaYrEohtO09Pls6ibWDJs6dz3FtVqtP9dUo1hXKpX719fXL+geqsG0fR/tAI/6ga6nv2ftRTuzNI2j6T5Ns2nObFAoFLS2Nj1NTPRKa0B56LudnZ3Xq9XqMe3oarfb1zVPrTUyTbGePn36A3qI/9GPfvSHH/7wh//Db92gb9y48Z/feOONG1tbWy/W6/Vjvu9rcS5aWlr6nXK5fF47LF599dX/tri4+Dvz8/MPzHr/iRavZIoSTbDTRzQ1Fv3ouLSxSVwdo8aePt6lBaLjNALW57qeAKm4VQQqXs0dnjhxIpc+luh4fa/GqkYp4VIjUM8nE0pH0ukoT6Mivc6dOzcdsep87RbR/HChUPA7nc6O5rmPHTt2VoK89NJLf3rhwoXf14KQ5pNPnTr19zS/NplM9jV3Xq1W106dOlXf2to6PDw87KkT0zzbjRs3/kRzmAsLC+/RlKPu2Ww2H1BRVKvV2mzEl1tbW5vOCW1vb09H0TI1GZpyT0c2KkrxSkcxOrfdbmtKJtIj25HH4tH29vb/KpVKzU6n8+qdO3f+cm1t7e+eOXPmH7fb7a1Wq/XisWPH/qHmf/XsV6/XtZtBI26NEGONDra3tzfX1tbODwaD7u7u7uVarXaq2WweT2NRrOnjYTqST0eN6UhEf+tHnc/ly5enmupYaaMRun7UQaUdrvLTj667tbV15/Lly382Nze3vLq6+pAeKWePvTmNhPSYWi6XNSqa1pSM6s6dO5qblY6aU9Q8ZHlzc/PnyndlZeX3a7VaNe1k1EGqnjStpfPVWaSP9Lq/fq5cuRIeHBzcyWazh3fv3n3llzNpE82J7mgaaDweH2peV1N94/H4QCOqRqOxlM1mo+3t7atnz5793eXl5Ye0TjE3N3d8YWHhfLPZbMpMdnZ2tOinHS3T0b5iUf2qY1fHIO3TUWH6JJl2xOkIUueoDXW73duDwUCF99r+/v4b+Xx+7qGHHvrDg4OD7Xa7vdtsNh8cDAa3tre3f3L8+PH3ra6uvjvVMe2Q1D6PThmkT4UytPF43CuVSlpE1qKylj0U460kSbz5+fnVfr8vJlelreaTZVqaO79+/fpfnD59+p+2Wq2fxXFcUYd1586dFxqNxrr41mo1tZtjYikDnu2i6g8Gg73Z08Cunjq1HtXpdLRg7dVqtTNnzpz515obDsNwbzKZ9LWeVavV1rQeNhwOd7WKXq/X17XGorUDzaFrfn9Wj5pbjTTfXSwWm4pB7VKL3uKl833fj1dXV+/XOsa1a9f+q+bsb9269cLS0tLf0ZpZv9/fPXv27PvDMNxXu1M+nU5n78c//vG/+chHPvJffusGrRs8/fTT2n70e1qECIJgrG1WmUxmMUkSLaho3nWzWCxqVV47JRLtQlBvpMcYTa9KKAk4a0zqtaYTrBJPxqCFDJ3med70OVba6wuZn7ZHaXFK50+r4ZfnqVC0gKWFNPX8c1qsUQFpZ8is14u0wKFdI9pVoAUNPQV5nqf5Mi3GrHqetzIT/7rmlHzfP9DiThzHh7OtcFqE0e4KLWJq1VYmrB0oilfHq0fWjoyi5qaV52xuWbtGfC0ahWHYX1pa0sLkSLsytG1LAwTFroVLxaXjZguc6roDGaR2eKiQtNio9cdZ7lrV9rS6oePERn/P5sLag8FAC2paSNR5WkyTeWmhUwuR4qsFTY0ctBgnnRSLdpVo2KIdMdNdNdJJeswWbBOZzoyfFkBH0m+Wh7YpTkPSNVSgiltGlV5XCzG9Xk+5a4FWP1o8bWhBUYtsvu+39/f3X/E8TzsWpvGI7Sx/xS+j1u4WzfFqzlANTCdrt4wWltSgtNKvRT7VmL7T0GfaAWo3RKVSOakHNNWGFgVVt7N6HGguUtfxPE8sVWvawaHFRi2GameRRng9aaFFPF1D3GdztNIlOTg42NKitWpFNaHF3FktK5exYtKCsH60iCxT0LGab1XtdLvdlnjMFtQUp+bstNCghbXR4uKi5pEku86NtbNBNSiz1A4jLX7pc+00SEeJWofTgmscx+p4S/otPrO2IR3FTzHndH+tO6gutMAm/YvFonZc6IlQi2tvbgtNR6epPuKuRTUt3GkRWvcIw/BgtvNJ9/MbjYba4HSKTffT1kTVe6qX/EK3ErckSZTb1B80OJoZ6sHnP//5qTcc3aL6ne9850QQBNoksKdOWszz+bx+a5FbtSAGQblcPqYdVGEYbhcKhfbe3p7aj5pJdTwea1G7LPbScOYv0zaijnY8Hu/Pz8/fP1s0VWyKVR6kYyS2NPe0eSGTycjQR5/5zGe00+avbKX9dUb9tqY4jl74j//4j5fG43FJo9bZCuiigpsZtOYQtHNABTHWbgWtzKoHV4NTMspLIwhtR9KS9Eyw3le/+tX/55YUbT3a2tpSwyjkcjk1kukqksxwtq2lrtVpmaeKRcU925I0bRizFWk1VJltWqQyEu1v1gq+3+v1pttyfN+XgWobjbb0dR577DHt0kiefvrpcq/XK77V1iZ9t7+/H6R7ob/5zW8uep7X1P1UXDK0paWllWw2q73W2noV6XEqn89HYRhqJ4q27ky35sm8kiQpaCVZzGTC6qdkhjJBxT8zHjVgbT1SHlqAkaGEKsjZVjDt8w1kwJPJZO/xxx/XboI3C0Z7w3WddO/17G/1iXq8qyl2NRRt5YvjuKoFYbmwDFJmoLcqzLSgtXNC72dFOz1G8Whnhx79ZztDpp3KrJHJUBWM0KlcAAAIoUlEQVSrduTsfOELX9C2xnt6abDQ6XRkdvG9LMD86kVVT+12e1Wj6kKhoN0MYqjdFDJPpRnL8GcmG2vEKnOZrdpri52MVPXc931f28P6Fy9enDba/9/XxsaGOo/gy1/+8nQlWbG99tprMjnVpgxjupDbaDRWZjUt81cnpg6wk8vl9j772c++I1vK3ir2J598UusVarNqI5ONjQ0r/5lEnfH3v/997bf/K3usxXt/f9/X5/pfhFmnGDebTe1CyaW6PPXUUxf0JBRF0d7Ozs7+xsbGLxc93qHXO2bQTz31lB4tNZLUfsTpaKRYLPqf/OQnfzlHYNHrueeey29vb8v4R+/EftK/6dS1f/Xg4KDYbre7v81/cvn2t789V6vVTmuHiu/70//skFkoX3U22gqVy+VGN27c6L3Thfs3zZT7QeBvg8A7ZtB/G8FzTwhAAAIuE8CgXVaX3CAAAasJYNBWy0fwEICAywQwaJfVJTcIQMBqAhi01fIRPAQg4DIBDNpldckNAhCwmgAGbbV8BA8BCLhMAIN2WV1ygwAErCaAQVstH8FDAAIuE8CgXVaX3CAAAasJYNBWy0fwEICAywQwaJfVJTcIQMBqAhi01fIRPAQg4DIBDNpldckNAhCwmgAGbbV8BA8BCLhMAIN2WV1ygwAErCaAQVstH8FDAAIuE8CgXVaX3CAAAasJYNBWy0fwEICAywQwaJfVJTcIQMBqAhi01fIRPAQg4DIBDNpldckNAhCwmgAGbbV8BA8BCLhMAIN2WV1ygwAErCaAQVstH8FDAAIuE8CgXVaX3CAAAasJYNBWy0fwEICAywQwaJfVJTcIQMBqAhi01fIRPAQg4DIBDNpldckNAhCwmgAGbbV8BA8BCLhMAIN2WV1ygwAErCaAQVstH8FDAAIuE8CgXVaX3CAAAasJYNBWy0fwEICAywQwaJfVJTcIQMBqAhi01fIRPAQg4DIBDNpldckNAhCwmgAGbbV8BA8BCLhMAIN2WV1ygwAErCaAQVstH8FDAAIuE8CgXVaX3CAAAasJYNBWy0fwEICAywQwaJfVJTcIQMBqAhi01fIRPAQg4DIBDNpldckNAhCwmgAGbbV8BA8BCLhMAIN2WV1ygwAErCaAQVstH8FDAAIuE8CgXVaX3CAAAasJYNBWy0fwEICAywQwaJfVJTcIQMBqAhi01fIRPAQg4DIBDNpldckNAhCwmgAGbbV8BA8BCLhMAIN2WV1ygwAErCaAQVstH8FDAAIuE8CgXVaX3CAAAasJYNBWy0fwEICAywQwaJfVJTcIQMBqAhi01fIRPAQg4DIBDNpldckNAhCwmgAGbbV8BA8BCLhMAIN2WV1ygwAErCaAQVstH8FDAAIuE8CgXVaX3CAAAasJYNBWy0fwEICAywQwaJfVJTcIQMBqAhi01fIRPAQg4DIBDNpldckNAhCwmgAGbbV8BA8BCLhMAIN2WV1ygwAErCaAQVstH8FDAAIuE8CgXVaX3CAAAasJYNBWy0fwEICAywQwaJfVJTcIQMBqAhi01fIRPAQg4DIBDNpldckNAhCwmgAGbbV8BA8BCLhMAIN2WV1ygwAErCaAQVstH8FDAAIuE8CgXVaX3CAAAasJYNBWy0fwEICAywQwaJfVJTcIQMBqAhi01fIRPAQg4DIBDNpldckNAhCwmgAGbbV8BA8BCLhMAIN2WV1ygwAErCaAQVstH8FDAAIuE8CgXVaX3CAAAasJYNBWy0fwEICAywQwaJfVJTcIQMBqAhi01fIRPAQg4DIBDNpldckNAhCwmgAGbbV8BA8BCLhMAIN2WV1ygwAErCaAQVstH8FDAAIuE8CgXVaX3CAAAasJYNBWy0fwEICAywQwaJfVJTcIQMBqAhi01fIRPAQg4DIBDNpldckNAhCwmgAGbbV8BA8BCLhMAIN2WV1ygwAErCaAQVstH8FDAAIuE8CgXVaX3CAAAasJYNBWy0fwEICAywQwaJfVJTcIQMBqAhi01fIRPAQg4DIBDNpldckNAhCwmgAGbbV8BA8BCLhMAIN2WV1ygwAErCaAQVstH8FDAAIuE8CgXVaX3CAAAasJYNBWy0fwEICAywQwaJfVJTcIQMBqAhi01fIRPAQg4DIBDNpldckNAhCwmgAGbbV8BA8BCLhMAIN2WV1ygwAErCaAQVstH8FDAAIuE8CgXVaX3CAAAasJYNBWy0fwEICAywQwaJfVJTcIQMBqAhi01fIRPAQg4DIBDNpldckNAhCwmgAGbbV8BA8BCLhMAIN2WV1ygwAErCaAQVstH8FDAAIuE8CgXVaX3CAAAasJYNBWy0fwEICAywQwaJfVJTcIQMBqAhi01fIRPAQg4DIBDNpldckNAhCwmgAGbbV8BA8BCLhMAIN2WV1ygwAErCaAQVstH8FDAAIuE8CgXVaX3CAAAasJYNBWy0fwEICAywQwaJfVJTcIQMBqAhi01fIRPAQg4DIBDNpldckNAhCwmgAGbbV8BA8BCLhMAIN2WV1ygwAErCaAQVstH8FDAAIuE8CgXVaX3CAAAasJYNBWy0fwEICAywQwaJfVJTcIQMBqAhi01fIRPAQg4DIBDNpldckNAhCwmgAGbbV8BA8BCLhMAIN2WV1ygwAErCaAQVstH8FDAAIuE8CgXVaX3CAAAasJYNBWy0fwEICAywQwaJfVJTcIQMBqAhi01fIRPAQg4DIBDNpldckNAhCwmgAGbbV8BA8BCLhMAIN2WV1ygwAErCaAQVstH8FDAAIuE8CgXVaX3CAAAasJYNBWy0fwEICAywQwaJfVJTcIQMBqAhi01fIRPAQg4DIBDNpldckNAhCwmgAGbbV8BA8BCLhMAIN2WV1ygwAErCaAQVstH8FDAAIuE8CgXVaX3CAAAasJYNBWy0fwEICAywQwaJfVJTcIQMBqAhi01fIRPAQg4DKB/w0yU3hohNXm7wAAAABJRU5ErkJggg==;direction=south;" vertex="1" parent="1">
          <mxGeometry x="-720" y="289" width="166" height="166" as="geometry" />
        </mxCell>
        <mxCell id="ISqIVDaVjtGfIf4uTUZB-71" value="&lt;font face=&quot;Times New Roman&quot; color=&quot;#ffffff&quot; style=&quot;font-size: 14px;&quot;&gt;Voltar&lt;/font&gt;" style="rounded=1;whiteSpace=wrap;html=1;fillColor=#5280FF;container=0;" vertex="1" parent="1">
          <mxGeometry x="-887" y="478" width="140" height="30" as="geometry" />
        </mxCell>
        <mxCell id="ISqIVDaVjtGfIf4uTUZB-72" value="&lt;font face=&quot;Times New Roman&quot; color=&quot;#ffffff&quot; style=&quot;font-size: 14px;&quot;&gt;Entrar em Contato&amp;nbsp;&lt;/font&gt;" style="rounded=1;whiteSpace=wrap;html=1;fillColor=#0CCC46;container=0;" vertex="1" parent="1">
          <mxGeometry x="-720" y="478" width="144" height="30" as="geometry" />
        </mxCell>
        <mxCell id="ISqIVDaVjtGfIf4uTUZB-73" value="" style="shape=image;html=1;verticalLabelPosition=bottom;verticalAlign=top;imageAspect=1;aspect=fixed;image=data:image/png,iVBORw0KGgoAAAANSUhEUgAAAWgAAAFoCAYAAAB65WHVAAAAAXNSR0IArs4c6QAAIABJREFUeF7tm1mMJMeZ3yuzKus+uquv6eb03ENyqBUFybuyZNgPhgHZsL2yBS/kB2MF6MIIoiRgqQOk9NJPehAFSaBAyJSMpcAHPxDwk3YfDNpar9ewIZjyQkNpeAzJmZ6ZnqOrr6quMysr0/6XKolemZbGS2o3IvAroNHVVXl83+//xT8iI6K9DC8IQAACEDCSgGdkVAQFAQhAAAIZDJoigAAEIGAoAQzaUGEICwIQgAAGTQ1AAAIQMJQABm2oMIQFAQhAAIOmBiAAAQgYSgCDNlQYwoIABCCAQVMDEIAABAwlgEEbKgxhQQACEMCgqQEIQAAChhLAoA0VhrAgAAEIYNDUAAQgAAFDCWDQhgpDWBCAAAQwaGoAAhCAgKEEMGhDhSEsCEAAAhg0NQABCEDAUAIYtKHCEBYEIAABDJoagAAEIGAoAQzaUGEICwIQgAAGTQ1AAAIQMJQABm2oMIQFAQhAAIOmBiAAAQgYSgCDNlQYwoIABCCAQVMDEIAABAwlgEEbKgxhQQACEMCgqQEIQAAChhLAoA0VhrAgAAEIYNDUAAQgAAFDCWDQhgpDWBCAAAQwaGoAAhCAgKEEMGhDhSEsCEAAAhg0NQABCEDAUAIYtKHCEBYEIAABDJoagAAEIGAoAQzaUGEICwIQgAAGTQ1AAAIQMJQABm2oMIQFAQhAAIOmBiAAAQgYSgCDNlQYwoIABCCAQVMDEIAABAwlgEEbKgxhQQACEMCgqQEIQAAChhLAoA0VhrAgAAEIYNDUAAQgAAFDCWDQhgpDWBCAAAQwaGoAAhCAgKEEMGhDhSEsCEAAAhg0NQABCEDAUAIYtKHCEBYEIAABDJoagAAEIGAoAQzaUGEICwIQgAAGTQ1AAAIQMJQABm2oMIQFAQhAAIOmBiAAAQgYSgCDNlQYwoIABCCAQVMDEIAABAwlgEEbKgxhQQACEMCgqQEIQAAChhLAoA0VhrAgAAEIYNDUAAQgAAFDCWDQhgpDWBCAAAQwaGoAAhCAgKEEMGhDhSEsCEAAAhg0NQABCEDAUAIYtKHCEBYEIAABDJoagAAEIGAoAQzaUGEICwIQgAAGTQ1AAAIQMJQABm2oMIQFAQhAAIOmBiAAAQgYSgCDNlQYwoIABCCAQVMDEIAABAwlgEEbKgxhQQACEMCgqQEIQAAChhLAoA0VhrAgAAEIYNDUAAQgAAFDCWDQhgpDWBCAAAQwaGoAAhCAgKEEMGhDhSEsCEAAAhg0NQABCEDAUAIYtKHCEBYEIAABDJoagAAEIGAoAQzaUGEICwIQgAAGTQ1AAAIQMJQABm2oMIQFAQhAAIOmBiAAAQgYSgCDNlQYwoIABCCAQVMDEIAABAwlgEEbKgxhQQACEMCgqQEIQAAChhLAoA0VhrAgAAEIYNDUAAQgAAFDCWDQhgpDWBCAAAQwaGoAAhCAgKEEMGhDhSEsCEAAAhg0NQABCEDAUAIYtKHCEBYEIAABDJoagAAEIGAoAQzaUGEICwIQgAAGTQ1AAAIQMJQABm2oMIQFAQhAAIOmBiAAAQgYSgCDNlQYwoIABCCAQVMDEIAABAwlgEEbKgxhQQACEMCgqQEIQAAChhLAoA0VhrAgAAEIYNDUAAQgAAFDCWDQhgpDWBCAAAQwaGoAAhCAgKEEMGhDhSEsCEAAAhg0NQABCEDAUAIYtKHCEBYEIAABDJoagAAEIGAoAQzaUGEICwIQgAAGTQ1AAAIQMJQABm2oMIQFAQhAAIOmBiAAAQgYSgCDNlQYwoIABCCAQVMDEIAABAwlgEEbKgxhQQACEMCgqQEIQAAChhLAoA0VhrAgAAEIYNDUAAQgAAFDCWDQhgpDWBCAAAQwaGoAAhCAgKEEMGhDhSEsCEAAAhg0NQABCEDAUAIYtKHCEBYEIAABDJoagAAEIGAoAQzaUGEICwIQgAAGTQ1AAAIQMJQABm2oMIQFAQhAAIOmBiAAAQgYSgCDNlQYwoIABCCAQVMDEIAABAwlgEEbKgxhQQACEMCgqQEIQAAChhLAoA0VhrAgAAEIYNDUAAQgAAFDCWDQhgpDWBCAAAQwaGoAAhCAgKEEMGhDhSEsCEAAAhg0NQABCEDAUAIYtKHCEBYEIAABDJoagAAEIGAoAQzaUGEICwIQgAAGTQ1AAAIQMJQABm2oMIQFAQhAAIOmBiAAAQgYSgCDNlQYwoIABCCAQVMDEIAABAwlgEEbKgxhQQACEMCgqQEIQAAChhLAoA0VhrAgAAEIYNDUAAQgAAFDCWDQhgpDWBCAAAQwaGoAAhCAgKEEMGhDhSEsCEAAAhg0NQABCEDAUAIYtKHCEBYEIAABDJoagAAEIGAoAQzaUGEICwIQgAAGTQ1AAAIQMJQABm2oMIQFAQhAAIOmBiAAAQgYSgCDNlQYwoIABCCAQVMDEIAABAwlgEEbKgxhQQACEMCgqQEIQAAChhLAoA0VhrAgAAEIYNDUAAQgAAFDCWDQhgpDWBCAAAQwaGoAAhCAgKEEMGhDhSEsCEAAAhj0kRr4wQ9+sJLJZD4Qx/FcHMe1UqnUaLVaVzzPiwuFQn48Ht+IouhWqVSaj+O4rWN83/eSJCn5vt/rdrs3i8Xi5NFHH91ztbSeeOKJiu/7zS9+8Ys3lOMPf/jDs77v3/nYxz7WczVn5bWxseGvrq42fd+vRVFUieO4ns1mF+I4LhaLxZXxeJzxfX8+k8kESZLkwjDsViqVuXa7/UoYhndLpdLE9/0rjzzyyGsuc3oncnvyySfrpVJpIYqiXrFY7Hz84x8fvhPXtfEa1hr0xsZGLp/Pn5ubm5Op3snn860wDJPFxcXhRz/60cG9iKFG12w214IgWJIpe553olgsXphMJvPj8dj3fb80Go06o9GoHUXRIJ/Px0EQJHEc98bjcdf3/Yrnef0oinYXFhbWb9++/bOFhYXK4eFhq9FoxAcHB1cee+yx9q+L5bvf/e7pfD4/zOVy3U984hNdz/OSo8crz42Njehe8vltHvO9731vOYqiE5PJZCFJEn84HG7ncrlxrVZbyefzi1EUHU4mk63JZOLlcrlJNpu98+lPf/ruXzemZ599tjIYDHIXL178tfz+utfXed/4xjeONRqNh33fz/m+H/V6vbuFQiFbLBbXBoNBFEXRRO9luJPJJIiiKJvNZmu5XG4lSZLKZDLRB3XP8+qDwWDX87ya9Mvn85kkSQZBEFS3t7d/4XneREyiKGp5nnfT9/0Xv/SlL22+ndhdOveZZ56ZC8OwNBwOq41G48J4PI5Go1G3VCpl4zjeHY1GW0EQdC5evDh2Ke97yeUdMegnnnjiI81m84PZbHbz9u3b/75UKmn0WVYAFy9efPleAvn617++kM/nq91ut5ckSeh5Xj4IgiCXy2UzmUyczWaDMAwLURTVstnssu/75clkEjabTZlGezweqyGP4jju67dMJKeTs9lxr9fb1ii4WCyW9LnnecHs/KIaVzabrarB+b6/lMvl7huPxwue561Xq9W5V1999c8WFhbem81mVUDXoyjqZDKZgYonn8/34zhWS+4kSdKKoqgfBMFgMBjcnpuba+7s7FyrVCoabSVhGB5ms1mZl0bimclkMi6VSkvValUjhf0kSRR3nMvlfOWtc0ajUU/3nUwm2SAIynEch+PxuJ/NZpXXUK98Pl8YDof92Si/6nmevgizWYWXzx4eHv7iK1/5yv9l/PeiiUbLcRwfn0wmSS6XU8cxHTnKsHzfT4rF4lyj0Vjb29u7nsvlMsVisTIcDg+jKBoHQRBGUXRXjS0Igm42m+1JjiiKcjPjk5F5nU5nkMvl1nzfX06SpD6ZTOY0Ms3lcvUoijK7u7svzwyvN5lMtrPZ7PbXvva12/cS/1sd861vfasURdEDmUxGxrtQrVbP6rg4jjO6X7lcXg6CYC0Mw9j3fRlHnCSJRr8FPSlJ4ziO9bdMuD2ZTDKFQmFReqpGkyQZFotF6asnikm3293WCDtJkl6v17scRZE6tm4ul9ufTCa3h8Ph5sbGRvc35fPcc89lL1++PC82SZLkwzAcep5XbTabx6S96i+OY3UAvUKhED7yyCO/8Zq/6Z7PPPNM8bc9etUAxff9YhAE06ePTCZTG4/H+UKhUNzd3b1dKBSUR0e/1bDCMJw0Go1CHMdqxyO1ZbUpaXJ4eDjVoFQqVaMoyg+Hw0T8V1dX2/1+X7XpPf744/u/Ke97+X5jY6NYLpfnisXiCXXuuVyuEIZhW1qovegnCIJJGIZRpVKpKT7P8+4o7s997nO793IPHfO2DfrZZ5/9o+Fw+C497kdR9D+CINiqVqurg8Gg3e129zudjkaTKixfj4PVanVpMpnIW/ZzuVwln8/rsVG/l7PZbLnf7x+MRiMZTy0IgkXBT5KkqxFrGIYy4EKpVLovl8s1oigS+LtBEGRyuZwaVE8jORlYtVpdrtfrzcPDw2uj0eiu7/t53U8mF0WR8g5Go9EgSRIZvYyjmslkVieTSb3b7R7L5/PvPXbs2JTj3t7etAHXarWM53ndnZ2dn00mk8FoNLrRaDSGYRi2+v3+1srKyup4PB7Pz8+XlIfneRphjUNV1WQynEwmEm+cz+fLnucN1DE0m80Lw+GwNRwOb8uQgyDIVyqVRRlst9vdnUwmxeXl5ZO7u7s3wzAczM/PL4zHY+Uggxe3RbFUZ1UsFjW6UzEoTvGY7O/vb47H4z1PlRwEvgxF5yVJEh0eHm7qOOlVKBRkRoPxeKzRvOLvtFqtzfPnz3+o3W7fPDg4uCXz9zyvNB6PpcNQDatWq0knNRiNetrZbLbQbDbPyWD7/b4KUp2WP+swC0EQlDKZjK5TyeVyMra5JEmW+/1+JIMulUrnNHIeDocTFXa/379aKBS8fD6vTkkmf3c0Gl3p9/ubYRh2FIs0Ur3kcrmqri824/F42ggWFhZOylTVUKMoGqlz/D+D53K5XNaTi4zYK5fLZ8vl8nuHw2Gn1+vdHo/HyWAwUEdY9n2/rkamGlWHnclkwkwmU6hUKoE6jsFgkNaF3rc7nc4b5XJZBq4YRjs7O7vqmGSo+Xzer1arqr2dJEl2VEu9Xu+WDKher58sFAqqz1ideaFQWJB+e3t7dzXQ0NSK4i4UCkvirhG7nvDUSWpAE4bhTQ0M1A40QNK99KQnY4jjeCydDw4ObmowUalUjpXL5YqeCm/evPn66urqg/l8fl76R1E0jON4pA6pXC6vtFqtN4bDYc/zvEK1Wp2X1up41MnGcZytVCrlwWBwqEGR6jKfz5d6vZ6eJjRCKGo6cDZQkolmNEhRnfT7/Z0gCCqzzlG1MygWi7p2ZjQaxSdOnHh/r9fbabfbN5RLNpuV2empRB6yrPrb3d3dmpubO5HNZovKUU+uqr96vb6aJMm42+0eTH750oBKsef0RKzBRTarcV8mmyTJfhzHXWFXbLPanD4pqQPsdrs3CoXCaj6f18AtHo1G+2KUz+cbmoZRe9FUTKVSkee18vm8Bnq6+EQ/w+Fwr1qtLqot9Ho9xbs2HA5f/NSnPnVPT1Bvy6CTJPnhz3/+8/efOHHiQpIkmWvXrj1fr9fLS0tLZ/SIKCh3797dm5+fP6HvZQ6NRkONKROGoUxk+v7oS8foR6ar7zWqmfYknjc1SV3n6Dm/+MUvpteUeWpUM2usGtW8eVmdo/P10rXT44bDYebg4CDT6/VUFNN76tjd3d3pfefn5zM3b95UUWXOnDmjEeL07xs3bui94N9utVo/DcPw+tmzZ8+r+M+dO/eu9fX1Y71e76BWqy1mMpniaDRSBxC3Wq3Lt27d+un58+f/VbPZnNN99VLsmjrpdruHg8FgpCL3PM8fDAYyz+ri4mLm0qVL+6PRKDx58uR0vjPNc9ZpTPNTnBrJpi/lqs/ELc1ZeaXHKH99rnOVu/7udruJTET6XLt27S8efvjhfyAee3t7L6kTVVF2u92tdrt9RaPE7e3t14bD4UG73b46Pz+/duHChX9eq9XOZ7PZ5tLSkvKexpBqOBt5TjnrfRpbt9udvlduL730Uubw8DDz0EMPTZlLS/3WT6qhjlXMs7nfN++R5q5c0uNnjX56z1RznaccW61WJBPyPG85k8nM7e7uvq78yuXyyZWVlZM6p1QqTTVaXV3NNJvN6d/60UsGrfe67tWrVzOXL1/WwEODhoE+O378+H39fj+Jomjl9OnTmfX19Wlt6Uf5V6vV6fujuqV/697tdnuaf8oqfa96FQP9rePSa4q1PpOmqf76XsfqWv1+v6XBzWAwuLO/v//y0tLSw6pX8VC8yufw8FAj16o6qePHj68cHh5qhB5XKpWcrq17pPUkBjpP10/brQZmarIy00ajUTza/nR8v9/P7O/vt/TkoVrr9/uT559//gsyw2q1ur6/v3/7/Pnz//K+++77F81ms6GOzPf9UAMHvWZPVJlOpzOs1WrFNJbZwGSau2JS3JVKRYMD9chvckr9Y8ZFxqyRu54QE+Ups1cnH0WRnvIKGpQoZ1039bG0vYm76kjXTzXVlJY62eFw2C0Wi9XRaHR49erV/65B0erq6ntffPHFf/viiy/+u0cfffQ3TsW+LYMeDAbX2u32yaWlJTWUwfXr13+uZPv9fnFnZ6e1vr7+u4VCoSSDUYIqAiWSvvS3Glma2FHR04YoMfW5CuNXzUdFqnMFXMB0Pf1Ww9Q5+k7XT1+CmxqDPtP7ra2t6W+dp3uoyFqt1rSIKpXK1Lhv3bo1vY4+U4NSI9M9ZSTHjh0b67H2xIkTo+eff/7P3/3ud5+7du3aa2fOnDl169at3tra2gfX19enoy0ZsopIPNRYdM3Nzc1pvGEYXtUIIJfLLQVBUNcobjgcLq6srEzvq3PVESnWer0+jWF/f38ar/4+WnRpIaXmJRapMaoBpjxnI5rM9evXNQ0xWVhY0BTStOB0Xb2Xtjs7O2Jyt1qtrqjT0jV0jOJXfC+88MKfhGG48+CDD/4zTduIn+KRob3VKzUM1UTKXrnoPoop/X3//fdPecsA09oQB/FQLczNzU11Uyx6pYalvHWMvtdnqUGnptrpdKa6qlMQ0xdeeKF/7dq1/xRFUbFSqXxgcXGxvry8nNGPOgrloXyUb1pPij01tNQwVCeXLl3S+sTLSZLcarfbh+fOnXt4PB43crnc+rve9a7pNRVb2umkg460fRytV+Wa3jfNLzVq6SMdpH36OtoRp/WdDj50npippvVeebVaLY0m6ydPnpwOVNIYxEe661z9Tttg2uGJeVpjaTtNB0DpgEC6ph2z9Dk6qNLfurZiUQ4aeFy6dOnJg4ODq81m8/f0FLS6uvr+fD5/WvnpGHE5Wue6b1qrej9rQ9PcUj1ST9D3qc8ornQgpvN1zBFfkTl7+hkOh9FgMOgtLS01xENPV/l8vq56TI9Pa/co99mgK9L6097e3ubi4uKJfr9/a3d397X19fUPrK6uPvD888//0Yc+9KGn37Jx/MqHb8ugt7e3f9RqtU5ubm7qEftSs9lcPX/+/HvL5fLizs5OWK/XF7e3t9vLy8sNJZaaY9ow0x73aExHe9t0lKPv38qgU4NPi0TXE7y0yH+15z56H50rgQRXhZI2AH2mgtD3uucrr7wyneJYW1t78zPFnzaQ2fSKzKD7k5/85H/Ozc3l7969+9P3ve99/+Tq1auXL1y48I+Wl5drahAyBRWZikgjf43GZCI7OzvtK1euPHN4eHhzaWnp7zcajfu14BQEwbpMSvfXeTIYmZ86ORmlDEZGr/dpx5c+IaRPHKmxiUVqvEeNRvlvbm7eTJJkb2Fh4cF6vZ7XNdQoVehp4SsG3UN/655ioPiVV6/X07ROIF537tyZMlXDlhbpKC5twEc7y/Qz3ev111+fPp3onhqtpiNmmaAMUp1aOipUHmkno+vpnspJ8el3ajRHOy2xSo1eOszmiTUKm5rT5cuXDzc3N//jyZMn/+A973nP9BqKS9Ncql3ledRo9FlqUvpOdaPjX3755VGn0/nLbrd7fWdn5+ri4uIpPfKWy+X7Tp069cEgCEa9Xk+fL87Pz2tx8U6j0bivXC5r7WAaV2psul46+tO906fCtO7T499q4JFyTjswXSut9XSwoPn1brfri61qXvdW53j79u2d8+fPL0pfaa3rK9/U5NLR41t1CL+qs45R7Km5p09UykFx6Pp37969pGmaW7du/SQIgpUHHnjgD9Rx6hjFpWmaYrEohtO09Pls6ibWDJs6dz3FtVqtP9dUo1hXKpX719fXL+geqsG0fR/tAI/6ga6nv2ftRTuzNI2j6T5Ns2nObFAoFLS2Nj1NTPRKa0B56LudnZ3Xq9XqMe3oarfb1zVPrTUyTbGePn36A3qI/9GPfvSHH/7wh//Db92gb9y48Z/feOONG1tbWy/W6/Vjvu9rcS5aWlr6nXK5fF47LF599dX/tri4+Dvz8/MPzHr/iRavZIoSTbDTRzQ1Fv3ouLSxSVwdo8aePt6lBaLjNALW57qeAKm4VQQqXs0dnjhxIpc+luh4fa/GqkYp4VIjUM8nE0pH0ukoT6Mivc6dOzcdsep87RbR/HChUPA7nc6O5rmPHTt2VoK89NJLf3rhwoXf14KQ5pNPnTr19zS/NplM9jV3Xq1W106dOlXf2to6PDw87KkT0zzbjRs3/kRzmAsLC+/RlKPu2Ww2H1BRVKvV2mzEl1tbW5vOCW1vb09H0TI1GZpyT0c2KkrxSkcxOrfdbmtKJtIj25HH4tH29vb/KpVKzU6n8+qdO3f+cm1t7e+eOXPmH7fb7a1Wq/XisWPH/qHmf/XsV6/XtZtBI26NEGONDra3tzfX1tbODwaD7u7u7uVarXaq2WweT2NRrOnjYTqST0eN6UhEf+tHnc/ly5enmupYaaMRun7UQaUdrvLTj667tbV15/Lly382Nze3vLq6+pAeKWePvTmNhPSYWi6XNSqa1pSM6s6dO5qblY6aU9Q8ZHlzc/PnyndlZeX3a7VaNe1k1EGqnjStpfPVWaSP9Lq/fq5cuRIeHBzcyWazh3fv3n3llzNpE82J7mgaaDweH2peV1N94/H4QCOqRqOxlM1mo+3t7atnz5793eXl5Ye0TjE3N3d8YWHhfLPZbMpMdnZ2tOinHS3T0b5iUf2qY1fHIO3TUWH6JJl2xOkIUueoDXW73duDwUCF99r+/v4b+Xx+7qGHHvrDg4OD7Xa7vdtsNh8cDAa3tre3f3L8+PH3ra6uvjvVMe2Q1D6PThmkT4UytPF43CuVSlpE1qKylj0U460kSbz5+fnVfr8vJlelreaTZVqaO79+/fpfnD59+p+2Wq2fxXFcUYd1586dFxqNxrr41mo1tZtjYikDnu2i6g8Gg73Z08Cunjq1HtXpdLRg7dVqtTNnzpz515obDsNwbzKZ9LWeVavV1rQeNhwOd7WKXq/X17XGorUDzaFrfn9Wj5pbjTTfXSwWm4pB7VKL3uKl833fj1dXV+/XOsa1a9f+q+bsb9269cLS0tLf0ZpZv9/fPXv27PvDMNxXu1M+nU5n78c//vG/+chHPvJffusGrRs8/fTT2n70e1qECIJgrG1WmUxmMUkSLaho3nWzWCxqVV47JRLtQlBvpMcYTa9KKAk4a0zqtaYTrBJPxqCFDJ3med70OVba6wuZn7ZHaXFK50+r4ZfnqVC0gKWFNPX8c1qsUQFpZ8is14u0wKFdI9pVoAUNPQV5nqf5Mi3GrHqetzIT/7rmlHzfP9DiThzHh7OtcFqE0e4KLWJq1VYmrB0oilfHq0fWjoyi5qaV52xuWbtGfC0ahWHYX1pa0sLkSLsytG1LAwTFroVLxaXjZguc6roDGaR2eKiQtNio9cdZ7lrV9rS6oePERn/P5sLag8FAC2paSNR5WkyTeWmhUwuR4qsFTY0ctBgnnRSLdpVo2KIdMdNdNdJJeswWbBOZzoyfFkBH0m+Wh7YpTkPSNVSgiltGlV5XCzG9Xk+5a4FWP1o8bWhBUYtsvu+39/f3X/E8TzsWpvGI7Sx/xS+j1u4WzfFqzlANTCdrt4wWltSgtNKvRT7VmL7T0GfaAWo3RKVSOakHNNWGFgVVt7N6HGguUtfxPE8sVWvawaHFRi2GameRRng9aaFFPF1D3GdztNIlOTg42NKitWpFNaHF3FktK5exYtKCsH60iCxT0LGab1XtdLvdlnjMFtQUp+bstNCghbXR4uKi5pEku86NtbNBNSiz1A4jLX7pc+00SEeJWofTgmscx+p4S/otPrO2IR3FTzHndH+tO6gutMAm/YvFonZc6IlQi2tvbgtNR6epPuKuRTUt3GkRWvcIw/BgtvNJ9/MbjYba4HSKTffT1kTVe6qX/EK3ErckSZTb1B80OJoZ6sHnP//5qTcc3aL6ne9850QQBNoksKdOWszz+bx+a5FbtSAGQblcPqYdVGEYbhcKhfbe3p7aj5pJdTwea1G7LPbScOYv0zaijnY8Hu/Pz8/fP1s0VWyKVR6kYyS2NPe0eSGTycjQR5/5zGe00+avbKX9dUb9tqY4jl74j//4j5fG43FJo9bZCuiigpsZtOYQtHNABTHWbgWtzKoHV4NTMspLIwhtR9KS9Eyw3le/+tX/55YUbT3a2tpSwyjkcjk1kukqksxwtq2lrtVpmaeKRcU925I0bRizFWk1VJltWqQyEu1v1gq+3+v1pttyfN+XgWobjbb0dR577DHt0kiefvrpcq/XK77V1iZ9t7+/H6R7ob/5zW8uep7X1P1UXDK0paWllWw2q73W2noV6XEqn89HYRhqJ4q27ky35sm8kiQpaCVZzGTC6qdkhjJBxT8zHjVgbT1SHlqAkaGEKsjZVjDt8w1kwJPJZO/xxx/XboI3C0Z7w3WddO/17G/1iXq8qyl2NRRt5YvjuKoFYbmwDFJmoLcqzLSgtXNC72dFOz1G8Whnhx79ZztDpp3KrJHJUBWM0KlcAAAIoUlEQVSrduTsfOELX9C2xnt6abDQ6XRkdvG9LMD86kVVT+12e1Wj6kKhoN0MYqjdFDJPpRnL8GcmG2vEKnOZrdpri52MVPXc931f28P6Fy9enDba/9/XxsaGOo/gy1/+8nQlWbG99tprMjnVpgxjupDbaDRWZjUt81cnpg6wk8vl9j772c++I1vK3ir2J598UusVarNqI5ONjQ0r/5lEnfH3v/997bf/K3usxXt/f9/X5/pfhFmnGDebTe1CyaW6PPXUUxf0JBRF0d7Ozs7+xsbGLxc93qHXO2bQTz31lB4tNZLUfsTpaKRYLPqf/OQnfzlHYNHrueeey29vb8v4R+/EftK/6dS1f/Xg4KDYbre7v81/cvn2t789V6vVTmuHiu/70//skFkoX3U22gqVy+VGN27c6L3Thfs3zZT7QeBvg8A7ZtB/G8FzTwhAAAIuE8CgXVaX3CAAAasJYNBWy0fwEICAywQwaJfVJTcIQMBqAhi01fIRPAQg4DIBDNpldckNAhCwmgAGbbV8BA8BCLhMAIN2WV1ygwAErCaAQVstH8FDAAIuE8CgXVaX3CAAAasJYNBWy0fwEICAywQwaJfVJTcIQMBqAhi01fIRPAQg4DIBDNpldckNAhCwmgAGbbV8BA8BCLhMAIN2WV1ygwAErCaAQVstH8FDAAIuE8CgXVaX3CAAAasJYNBWy0fwEICAywQwaJfVJTcIQMBqAhi01fIRPAQg4DIBDNpldckNAhCwmgAGbbV8BA8BCLhMAIN2WV1ygwAErCaAQVstH8FDAAIuE8CgXVaX3CAAAasJYNBWy0fwEICAywQwaJfVJTcIQMBqAhi01fIRPAQg4DIBDNpldckNAhCwmgAGbbV8BA8BCLhMAIN2WV1ygwAErCaAQVstH8FDAAIuE8CgXVaX3CAAAasJYNBWy0fwEICAywQwaJfVJTcIQMBqAhi01fIRPAQg4DIBDNpldckNAhCwmgAGbbV8BA8BCLhMAIN2WV1ygwAErCaAQVstH8FDAAIuE8CgXVaX3CAAAasJYNBWy0fwEICAywQwaJfVJTcIQMBqAhi01fIRPAQg4DIBDNpldckNAhCwmgAGbbV8BA8BCLhMAIN2WV1ygwAErCaAQVstH8FDAAIuE8CgXVaX3CAAAasJYNBWy0fwEICAywQwaJfVJTcIQMBqAhi01fIRPAQg4DIBDNpldckNAhCwmgAGbbV8BA8BCLhMAIN2WV1ygwAErCaAQVstH8FDAAIuE8CgXVaX3CAAAasJYNBWy0fwEICAywQwaJfVJTcIQMBqAhi01fIRPAQg4DIBDNpldckNAhCwmgAGbbV8BA8BCLhMAIN2WV1ygwAErCaAQVstH8FDAAIuE8CgXVaX3CAAAasJYNBWy0fwEICAywQwaJfVJTcIQMBqAhi01fIRPAQg4DIBDNpldckNAhCwmgAGbbV8BA8BCLhMAIN2WV1ygwAErCaAQVstH8FDAAIuE8CgXVaX3CAAAasJYNBWy0fwEICAywQwaJfVJTcIQMBqAhi01fIRPAQg4DIBDNpldckNAhCwmgAGbbV8BA8BCLhMAIN2WV1ygwAErCaAQVstH8FDAAIuE8CgXVaX3CAAAasJYNBWy0fwEICAywQwaJfVJTcIQMBqAhi01fIRPAQg4DIBDNpldckNAhCwmgAGbbV8BA8BCLhMAIN2WV1ygwAErCaAQVstH8FDAAIuE8CgXVaX3CAAAasJYNBWy0fwEICAywQwaJfVJTcIQMBqAhi01fIRPAQg4DIBDNpldckNAhCwmgAGbbV8BA8BCLhMAIN2WV1ygwAErCaAQVstH8FDAAIuE8CgXVaX3CAAAasJYNBWy0fwEICAywQwaJfVJTcIQMBqAhi01fIRPAQg4DIBDNpldckNAhCwmgAGbbV8BA8BCLhMAIN2WV1ygwAErCaAQVstH8FDAAIuE8CgXVaX3CAAAasJYNBWy0fwEICAywQwaJfVJTcIQMBqAhi01fIRPAQg4DIBDNpldckNAhCwmgAGbbV8BA8BCLhMAIN2WV1ygwAErCaAQVstH8FDAAIuE8CgXVaX3CAAAasJYNBWy0fwEICAywQwaJfVJTcIQMBqAhi01fIRPAQg4DIBDNpldckNAhCwmgAGbbV8BA8BCLhMAIN2WV1ygwAErCaAQVstH8FDAAIuE8CgXVaX3CAAAasJYNBWy0fwEICAywQwaJfVJTcIQMBqAhi01fIRPAQg4DIBDNpldckNAhCwmgAGbbV8BA8BCLhMAIN2WV1ygwAErCaAQVstH8FDAAIuE8CgXVaX3CAAAasJYNBWy0fwEICAywQwaJfVJTcIQMBqAhi01fIRPAQg4DIBDNpldckNAhCwmgAGbbV8BA8BCLhMAIN2WV1ygwAErCaAQVstH8FDAAIuE8CgXVaX3CAAAasJYNBWy0fwEICAywQwaJfVJTcIQMBqAhi01fIRPAQg4DIBDNpldckNAhCwmgAGbbV8BA8BCLhMAIN2WV1ygwAErCaAQVstH8FDAAIuE8CgXVaX3CAAAasJYNBWy0fwEICAywQwaJfVJTcIQMBqAhi01fIRPAQg4DIBDNpldckNAhCwmgAGbbV8BA8BCLhMAIN2WV1ygwAErCaAQVstH8FDAAIuE8CgXVaX3CAAAasJYNBWy0fwEICAywQwaJfVJTcIQMBqAhi01fIRPAQg4DIBDNpldckNAhCwmgAGbbV8BA8BCLhMAIN2WV1ygwAErCaAQVstH8FDAAIuE8CgXVaX3CAAAasJYNBWy0fwEICAywQwaJfVJTcIQMBqAhi01fIRPAQg4DIBDNpldckNAhCwmgAGbbV8BA8BCLhMAIN2WV1ygwAErCaAQVstH8FDAAIuE8CgXVaX3CAAAasJYNBWy0fwEICAywQwaJfVJTcIQMBqAhi01fIRPAQg4DKB/w0yU3hohNXm7wAAAABJRU5ErkJggg==;direction=south;" vertex="1" parent="1">
          <mxGeometry x="-1473" y="262" width="240" height="240" as="geometry" />
        </mxCell>
        <mxCell id="ISqIVDaVjtGfIf4uTUZB-77" value="" style="edgeStyle=orthogonalEdgeStyle;rounded=0;orthogonalLoop=1;jettySize=auto;html=1;" edge="1" parent="1" source="ISqIVDaVjtGfIf4uTUZB-74" target="ISqIVDaVjtGfIf4uTUZB-76">
          <mxGeometry relative="1" as="geometry" />
        </mxCell>
        <mxCell id="ISqIVDaVjtGfIf4uTUZB-74" value="InÃ­cio" style="ellipse;whiteSpace=wrap;html=1;" vertex="1" parent="1">
          <mxGeometry x="-120" y="90" width="120" height="80" as="geometry" />
        </mxCell>
        <mxCell id="ISqIVDaVjtGfIf4uTUZB-80" value="" style="edgeStyle=orthogonalEdgeStyle;rounded=0;orthogonalLoop=1;jettySize=auto;html=1;" edge="1" parent="1" source="ISqIVDaVjtGfIf4uTUZB-76" target="ISqIVDaVjtGfIf4uTUZB-78">
          <mxGeometry relative="1" as="geometry" />
        </mxCell>
        <mxCell id="ISqIVDaVjtGfIf4uTUZB-76" value="Cadastro de Cliente" style="rounded=0;whiteSpace=wrap;html=1;" vertex="1" parent="1">
          <mxGeometry x="-120" y="214.25" width="120" height="60" as="geometry" />
        </mxCell>
        <mxCell id="ISqIVDaVjtGfIf4uTUZB-82" value="" style="edgeStyle=orthogonalEdgeStyle;rounded=0;orthogonalLoop=1;jettySize=auto;html=1;" edge="1" parent="1" source="ISqIVDaVjtGfIf4uTUZB-78" target="ISqIVDaVjtGfIf4uTUZB-81">
          <mxGeometry relative="1" as="geometry" />
        </mxCell>
        <mxCell id="ISqIVDaVjtGfIf4uTUZB-78" value="Nome :" style="shape=document;whiteSpace=wrap;html=1;boundedLbl=1;" vertex="1" parent="1">
          <mxGeometry x="-120" y="325" width="120" height="80" as="geometry" />
        </mxCell>
        <mxCell id="ISqIVDaVjtGfIf4uTUZB-84" value="" style="edgeStyle=orthogonalEdgeStyle;rounded=0;orthogonalLoop=1;jettySize=auto;html=1;" edge="1" parent="1" source="ISqIVDaVjtGfIf4uTUZB-81" target="ISqIVDaVjtGfIf4uTUZB-83">
          <mxGeometry relative="1" as="geometry" />
        </mxCell>
        <mxCell id="ISqIVDaVjtGfIf4uTUZB-81" value="Batista" style="rounded=0;whiteSpace=wrap;html=1;" vertex="1" parent="1">
          <mxGeometry x="60" y="335" width="120" height="60" as="geometry" />
        </mxCell>
        <mxCell id="ISqIVDaVjtGfIf4uTUZB-86" value="" style="edgeStyle=orthogonalEdgeStyle;rounded=0;orthogonalLoop=1;jettySize=auto;html=1;" edge="1" parent="1" source="ISqIVDaVjtGfIf4uTUZB-83" target="ISqIVDaVjtGfIf4uTUZB-85">
          <mxGeometry relative="1" as="geometry" />
        </mxCell>
        <mxCell id="ISqIVDaVjtGfIf4uTUZB-83" value="Adolfo" style="rounded=0;whiteSpace=wrap;html=1;" vertex="1" parent="1">
          <mxGeometry x="60" y="442" width="120" height="60" as="geometry" />
        </mxCell>
        <mxCell id="ISqIVDaVjtGfIf4uTUZB-88" value="" style="edgeStyle=orthogonalEdgeStyle;rounded=0;orthogonalLoop=1;jettySize=auto;html=1;" edge="1" parent="1" source="ISqIVDaVjtGfIf4uTUZB-85" target="ISqIVDaVjtGfIf4uTUZB-87">
          <mxGeometry relative="1" as="geometry" />
        </mxCell>
        <mxCell id="ISqIVDaVjtGfIf4uTUZB-85" value="Hitler" style="rounded=0;whiteSpace=wrap;html=1;" vertex="1" parent="1">
          <mxGeometry x="60" y="555" width="120" height="60" as="geometry" />
        </mxCell>
        <mxCell id="ISqIVDaVjtGfIf4uTUZB-90" value="" style="edgeStyle=orthogonalEdgeStyle;rounded=0;orthogonalLoop=1;jettySize=auto;html=1;" edge="1" parent="1" source="ISqIVDaVjtGfIf4uTUZB-87" target="ISqIVDaVjtGfIf4uTUZB-89">
          <mxGeometry relative="1" as="geometry" />
        </mxCell>
        <mxCell id="ISqIVDaVjtGfIf4uTUZB-87" value="Josefina" style="rounded=0;whiteSpace=wrap;html=1;" vertex="1" parent="1">
          <mxGeometry x="60" y="670" width="120" height="60" as="geometry" />
        </mxCell>
        <mxCell id="ISqIVDaVjtGfIf4uTUZB-94" value="" style="edgeStyle=orthogonalEdgeStyle;rounded=0;orthogonalLoop=1;jettySize=auto;html=1;" edge="1" parent="1" source="ISqIVDaVjtGfIf4uTUZB-89">
          <mxGeometry relative="1" as="geometry">
            <mxPoint x="120" y="950" as="targetPoint" />
          </mxGeometry>
        </mxCell>
        <mxCell id="ISqIVDaVjtGfIf4uTUZB-95" value="SIM" style="edgeLabel;html=1;align=center;verticalAlign=middle;resizable=0;points=[];" vertex="1" connectable="0" parent="ISqIVDaVjtGfIf4uTUZB-94">
          <mxGeometry y="1" relative="1" as="geometry">
            <mxPoint as="offset" />
          </mxGeometry>
        </mxCell>
        <mxCell id="ISqIVDaVjtGfIf4uTUZB-89" value="InformaÃ§Ãµes&lt;div&gt;Corretas?&lt;/div&gt;" style="rhombus;whiteSpace=wrap;html=1;" vertex="1" parent="1">
          <mxGeometry x="70" y="780" width="100" height="100" as="geometry" />
        </mxCell>
        <mxCell id="ISqIVDaVjtGfIf4uTUZB-91" value="" style="endArrow=classic;html=1;rounded=0;exitX=0;exitY=0.5;exitDx=0;exitDy=0;entryX=0.5;entryY=0.938;entryDx=0;entryDy=0;entryPerimeter=0;" edge="1" parent="1" source="ISqIVDaVjtGfIf4uTUZB-89" target="ISqIVDaVjtGfIf4uTUZB-78">
          <mxGeometry width="50" height="50" relative="1" as="geometry">
            <mxPoint x="-470" y="740" as="sourcePoint" />
            <mxPoint x="-420" y="690" as="targetPoint" />
            <Array as="points">
              <mxPoint x="-60" y="830" />
            </Array>
          </mxGeometry>
        </mxCell>
        <mxCell id="ISqIVDaVjtGfIf4uTUZB-92" value="NÃO" style="edgeLabel;html=1;align=center;verticalAlign=middle;resizable=0;points=[];" vertex="1" connectable="0" parent="ISqIVDaVjtGfIf4uTUZB-91">
          <mxGeometry x="-0.7709" y="2" relative="1" as="geometry">
            <mxPoint as="offset" />
          </mxGeometry>
        </mxCell>
        <mxCell id="ISqIVDaVjtGfIf4uTUZB-98" value="" style="edgeStyle=orthogonalEdgeStyle;rounded=0;orthogonalLoop=1;jettySize=auto;html=1;" edge="1" parent="1" source="ISqIVDaVjtGfIf4uTUZB-96" target="ISqIVDaVjtGfIf4uTUZB-97">
          <mxGeometry relative="1" as="geometry" />
        </mxCell>
        <mxCell id="ISqIVDaVjtGfIf4uTUZB-96" value="Telefone :" style="shape=document;whiteSpace=wrap;html=1;boundedLbl=1;" vertex="1" parent="1">
          <mxGeometry x="60" y="950" width="120" height="80" as="geometry" />
        </mxCell>
        <mxCell id="ISqIVDaVjtGfIf4uTUZB-100" value="" style="edgeStyle=orthogonalEdgeStyle;rounded=0;orthogonalLoop=1;jettySize=auto;html=1;" edge="1" parent="1" source="ISqIVDaVjtGfIf4uTUZB-97" target="ISqIVDaVjtGfIf4uTUZB-99">
          <mxGeometry relative="1" as="geometry" />
        </mxCell>
        <mxCell id="ISqIVDaVjtGfIf4uTUZB-97" value="&lt;div&gt;&lt;span style=&quot;font-family: &amp;quot;Times New Roman&amp;quot;;&quot;&gt;&lt;font style=&quot;font-size: 14px;&quot;&gt;Batista&lt;/font&gt;&lt;/span&gt;&lt;/div&gt;&lt;span style=&quot;font-family: &amp;quot;Times New Roman&amp;quot;;&quot;&gt;&lt;font style=&quot;font-size: 12px;&quot;&gt;(11)99941 - 2835&lt;/font&gt;&lt;/span&gt;" style="rounded=0;whiteSpace=wrap;html=1;" vertex="1" parent="1">
          <mxGeometry x="240" y="960" width="120" height="60" as="geometry" />
        </mxCell>
        <mxCell id="ISqIVDaVjtGfIf4uTUZB-102" value="" style="edgeStyle=orthogonalEdgeStyle;rounded=0;orthogonalLoop=1;jettySize=auto;html=1;" edge="1" parent="1" source="ISqIVDaVjtGfIf4uTUZB-99" target="ISqIVDaVjtGfIf4uTUZB-101">
          <mxGeometry relative="1" as="geometry" />
        </mxCell>
        <mxCell id="ISqIVDaVjtGfIf4uTUZB-99" value="&lt;div&gt;&lt;font face=&quot;Times New Roman&quot;&gt;&lt;span style=&quot;font-size: 14px;&quot;&gt;Adolfo&lt;/span&gt;&lt;/font&gt;&lt;/div&gt;&lt;span style=&quot;font-family: &amp;quot;Times New Roman&amp;quot;;&quot;&gt;&lt;font style=&quot;font-size: 12px;&quot;&gt;(13)99864 - 4855&lt;/font&gt;&lt;/span&gt;" style="rounded=0;whiteSpace=wrap;html=1;" vertex="1" parent="1">
          <mxGeometry x="240" y="1070" width="120" height="60" as="geometry" />
        </mxCell>
        <mxCell id="ISqIVDaVjtGfIf4uTUZB-104" value="" style="edgeStyle=orthogonalEdgeStyle;rounded=0;orthogonalLoop=1;jettySize=auto;html=1;" edge="1" parent="1" source="ISqIVDaVjtGfIf4uTUZB-101" target="ISqIVDaVjtGfIf4uTUZB-103">
          <mxGeometry relative="1" as="geometry" />
        </mxCell>
        <mxCell id="ISqIVDaVjtGfIf4uTUZB-101" value="&lt;div&gt;&lt;font face=&quot;Times New Roman&quot;&gt;&lt;span style=&quot;font-size: 14px;&quot;&gt;Hitler&lt;/span&gt;&lt;/font&gt;&lt;/div&gt;&lt;span style=&quot;font-family: &amp;quot;Times New Roman&amp;quot;;&quot;&gt;&lt;font style=&quot;font-size: 12px;&quot;&gt;(77)99671 - 9980&lt;/font&gt;&lt;/span&gt;" style="rounded=0;whiteSpace=wrap;html=1;" vertex="1" parent="1">
          <mxGeometry x="240" y="1180" width="120" height="60" as="geometry" />
        </mxCell>
        <mxCell id="ISqIVDaVjtGfIf4uTUZB-106" value="" style="edgeStyle=orthogonalEdgeStyle;rounded=0;orthogonalLoop=1;jettySize=auto;html=1;" edge="1" parent="1" source="ISqIVDaVjtGfIf4uTUZB-103" target="ISqIVDaVjtGfIf4uTUZB-105">
          <mxGeometry relative="1" as="geometry" />
        </mxCell>
        <mxCell id="ISqIVDaVjtGfIf4uTUZB-103" value="&lt;div&gt;&lt;font face=&quot;Times New Roman&quot;&gt;&lt;span style=&quot;font-size: 14px;&quot;&gt;Josefina&lt;/span&gt;&lt;/font&gt;&lt;/div&gt;&lt;span style=&quot;font-family: &amp;quot;Times New Roman&amp;quot;;&quot;&gt;&lt;font style=&quot;font-size: 12px;&quot;&gt;(43)99958 - 4891&lt;/font&gt;&lt;/span&gt;" style="rounded=0;whiteSpace=wrap;html=1;" vertex="1" parent="1">
          <mxGeometry x="240" y="1290" width="120" height="60" as="geometry" />
        </mxCell>
        <mxCell id="ISqIVDaVjtGfIf4uTUZB-110" value="" style="edgeStyle=orthogonalEdgeStyle;rounded=0;orthogonalLoop=1;jettySize=auto;html=1;" edge="1" parent="1" source="ISqIVDaVjtGfIf4uTUZB-105" target="ISqIVDaVjtGfIf4uTUZB-109">
          <mxGeometry relative="1" as="geometry" />
        </mxCell>
        <mxCell id="ISqIVDaVjtGfIf4uTUZB-105" value="InformaÃ§Ãµes&lt;div&gt;Corretas?&lt;/div&gt;" style="rhombus;whiteSpace=wrap;html=1;" vertex="1" parent="1">
          <mxGeometry x="250" y="1400" width="100" height="100" as="geometry" />
        </mxCell>
        <mxCell id="ISqIVDaVjtGfIf4uTUZB-107" value="" style="endArrow=classic;html=1;rounded=0;exitX=0;exitY=0.5;exitDx=0;exitDy=0;entryX=0.5;entryY=0.938;entryDx=0;entryDy=0;entryPerimeter=0;" edge="1" parent="1" source="ISqIVDaVjtGfIf4uTUZB-105" target="ISqIVDaVjtGfIf4uTUZB-96">
          <mxGeometry width="50" height="50" relative="1" as="geometry">
            <mxPoint x="-210" y="1250" as="sourcePoint" />
            <mxPoint x="-160" y="1200" as="targetPoint" />
            <Array as="points">
              <mxPoint x="120" y="1450" />
            </Array>
          </mxGeometry>
        </mxCell>
        <mxCell id="ISqIVDaVjtGfIf4uTUZB-108" value="NÃO" style="edgeLabel;html=1;align=center;verticalAlign=middle;resizable=0;points=[];" vertex="1" connectable="0" parent="ISqIVDaVjtGfIf4uTUZB-107">
          <mxGeometry x="-0.7725" y="1" relative="1" as="geometry">
            <mxPoint as="offset" />
          </mxGeometry>
        </mxCell>
        <mxCell id="ISqIVDaVjtGfIf4uTUZB-112" value="" style="edgeStyle=orthogonalEdgeStyle;rounded=0;orthogonalLoop=1;jettySize=auto;html=1;" edge="1" parent="1" source="ISqIVDaVjtGfIf4uTUZB-109" target="ISqIVDaVjtGfIf4uTUZB-111">
          <mxGeometry relative="1" as="geometry" />
        </mxCell>
        <mxCell id="ISqIVDaVjtGfIf4uTUZB-109" value="Cidade :" style="shape=document;whiteSpace=wrap;html=1;boundedLbl=1;" vertex="1" parent="1">
          <mxGeometry x="240" y="1560" width="120" height="80" as="geometry" />
        </mxCell>
        <mxCell id="ISqIVDaVjtGfIf4uTUZB-114" value="" style="edgeStyle=orthogonalEdgeStyle;rounded=0;orthogonalLoop=1;jettySize=auto;html=1;" edge="1" parent="1" source="ISqIVDaVjtGfIf4uTUZB-111" target="ISqIVDaVjtGfIf4uTUZB-113">
          <mxGeometry relative="1" as="geometry" />
        </mxCell>
        <mxCell id="ISqIVDaVjtGfIf4uTUZB-111" value="&lt;div&gt;&lt;span style=&quot;font-family: &amp;quot;Times New Roman&amp;quot;;&quot;&gt;&lt;font style=&quot;font-size: 18px;&quot;&gt;Batista&lt;/font&gt;&lt;/span&gt;&lt;/div&gt;&lt;span style=&quot;font-family: &amp;quot;Times New Roman&amp;quot;;&quot;&gt;&lt;font style=&quot;font-size: 14px;&quot;&gt;Assis&lt;/font&gt;&lt;/span&gt;" style="rounded=0;whiteSpace=wrap;html=1;" vertex="1" parent="1">
          <mxGeometry x="420" y="1570" width="120" height="60" as="geometry" />
        </mxCell>
        <mxCell id="ISqIVDaVjtGfIf4uTUZB-116" value="" style="edgeStyle=orthogonalEdgeStyle;rounded=0;orthogonalLoop=1;jettySize=auto;html=1;" edge="1" parent="1" source="ISqIVDaVjtGfIf4uTUZB-113" target="ISqIVDaVjtGfIf4uTUZB-115">
          <mxGeometry relative="1" as="geometry" />
        </mxCell>
        <mxCell id="ISqIVDaVjtGfIf4uTUZB-113" value="&lt;div&gt;&lt;font face=&quot;Times New Roman&quot;&gt;&lt;span style=&quot;font-size: 14px;&quot;&gt;Adolfo&lt;/span&gt;&lt;/font&gt;&lt;/div&gt;&lt;span style=&quot;font-family: &amp;quot;Times New Roman&amp;quot;;&quot;&gt;Praia Grande&lt;/span&gt;" style="rounded=0;whiteSpace=wrap;html=1;" vertex="1" parent="1">
          <mxGeometry x="420" y="1680" width="120" height="60" as="geometry" />
        </mxCell>
        <mxCell id="ISqIVDaVjtGfIf4uTUZB-118" value="" style="edgeStyle=orthogonalEdgeStyle;rounded=0;orthogonalLoop=1;jettySize=auto;html=1;" edge="1" parent="1" source="ISqIVDaVjtGfIf4uTUZB-115" target="ISqIVDaVjtGfIf4uTUZB-117">
          <mxGeometry relative="1" as="geometry" />
        </mxCell>
        <mxCell id="ISqIVDaVjtGfIf4uTUZB-115" value="&lt;div&gt;&lt;font face=&quot;Times New Roman&quot;&gt;&lt;span style=&quot;font-size: 14px;&quot;&gt;Hitler&lt;/span&gt;&lt;/font&gt;&lt;/div&gt;&lt;span style=&quot;font-family: &amp;quot;Times New Roman&amp;quot;;&quot;&gt;Barreiras&lt;/span&gt;" style="rounded=0;whiteSpace=wrap;html=1;" vertex="1" parent="1">
          <mxGeometry x="420" y="1790" width="120" height="60" as="geometry" />
        </mxCell>
        <mxCell id="ISqIVDaVjtGfIf4uTUZB-120" value="" style="edgeStyle=orthogonalEdgeStyle;rounded=0;orthogonalLoop=1;jettySize=auto;html=1;" edge="1" parent="1" source="ISqIVDaVjtGfIf4uTUZB-117" target="ISqIVDaVjtGfIf4uTUZB-119">
          <mxGeometry relative="1" as="geometry" />
        </mxCell>
        <mxCell id="ISqIVDaVjtGfIf4uTUZB-117" value="&lt;div&gt;&lt;font face=&quot;Times New Roman&quot;&gt;&lt;span style=&quot;font-size: 14px;&quot;&gt;Josefina&lt;/span&gt;&lt;/font&gt;&lt;/div&gt;&lt;span style=&quot;font-family: &amp;quot;Times New Roman&amp;quot;;&quot;&gt;Curitiba&lt;/span&gt;" style="rounded=0;whiteSpace=wrap;html=1;" vertex="1" parent="1">
          <mxGeometry x="420" y="1900" width="120" height="60" as="geometry" />
        </mxCell>
        <mxCell id="ISqIVDaVjtGfIf4uTUZB-125" value="" style="edgeStyle=orthogonalEdgeStyle;rounded=0;orthogonalLoop=1;jettySize=auto;html=1;" edge="1" parent="1" source="ISqIVDaVjtGfIf4uTUZB-119" target="ISqIVDaVjtGfIf4uTUZB-124">
          <mxGeometry relative="1" as="geometry" />
        </mxCell>
        <mxCell id="ISqIVDaVjtGfIf4uTUZB-127" value="SIM" style="edgeLabel;html=1;align=center;verticalAlign=middle;resizable=0;points=[];" vertex="1" connectable="0" parent="ISqIVDaVjtGfIf4uTUZB-125">
          <mxGeometry x="-0.0857" relative="1" as="geometry">
            <mxPoint as="offset" />
          </mxGeometry>
        </mxCell>
        <mxCell id="ISqIVDaVjtGfIf4uTUZB-119" value="InformaÃ§Ãµes&lt;div&gt;Corretas?&lt;/div&gt;" style="rhombus;whiteSpace=wrap;html=1;" vertex="1" parent="1">
          <mxGeometry x="430" y="2020" width="100" height="100" as="geometry" />
        </mxCell>
        <mxCell id="ISqIVDaVjtGfIf4uTUZB-121" value="" style="endArrow=classic;html=1;rounded=0;exitX=0;exitY=0.5;exitDx=0;exitDy=0;entryX=0.458;entryY=0.95;entryDx=0;entryDy=0;entryPerimeter=0;" edge="1" parent="1" source="ISqIVDaVjtGfIf4uTUZB-119" target="ISqIVDaVjtGfIf4uTUZB-109">
          <mxGeometry width="50" height="50" relative="1" as="geometry">
            <mxPoint x="60" y="1970" as="sourcePoint" />
            <mxPoint x="280" y="1680" as="targetPoint" />
            <Array as="points">
              <mxPoint x="295" y="2070" />
            </Array>
          </mxGeometry>
        </mxCell>
        <mxCell id="ISqIVDaVjtGfIf4uTUZB-122" value="NÃO" style="edgeLabel;html=1;align=center;verticalAlign=middle;resizable=0;points=[];" vertex="1" connectable="0" parent="ISqIVDaVjtGfIf4uTUZB-121">
          <mxGeometry x="-0.766" relative="1" as="geometry">
            <mxPoint as="offset" />
          </mxGeometry>
        </mxCell>
        <mxCell id="ISqIVDaVjtGfIf4uTUZB-128" value="" style="edgeStyle=orthogonalEdgeStyle;rounded=0;orthogonalLoop=1;jettySize=auto;html=1;" edge="1" parent="1" source="ISqIVDaVjtGfIf4uTUZB-124" target="ISqIVDaVjtGfIf4uTUZB-126">
          <mxGeometry relative="1" as="geometry" />
        </mxCell>
        <mxCell id="ISqIVDaVjtGfIf4uTUZB-124" value="Entrar Em Contato" style="rounded=0;whiteSpace=wrap;html=1;" vertex="1" parent="1">
          <mxGeometry x="420" y="2190" width="120" height="60" as="geometry" />
        </mxCell>
        <mxCell id="ISqIVDaVjtGfIf4uTUZB-126" value="FIM" style="ellipse;whiteSpace=wrap;html=1;" vertex="1" parent="1">
          <mxGeometry x="420" y="2300" width="120" height="80" as="geometry" />
        </mxCell>
      </root>
    </mxGraphModel>
  </diagram>
</mxfile>
